<svg xmlns="http://www.w3.org/2000/svg" viewBox="0 0 765 518"><path fill="#FFF" d="M88 140v16H71v16h17v17h16v-17h16v-16h-16v-16zM55 189v16H39v16h16v16h16v-16h17v-16H71v-16zM63.3 121c-5.6 0-10.1 4.5-10.1 10.1v.6c0 5.6 4.5 10.1 10.1 10.1s10.1-4.5 10.1-10.1v-.3-.3c.1-5.6-4.5-10.1-10.1-10.1zM120 189v16h-16v16h16v16h16v-16h16v-16h-16v-16zM152 140v16h-16v16h16v17h17v-17h16v-16h-16v-16zM363 91V75h-16v16h-16v17h16v16h16v-16h16V91zM282 75v16h-16v17h16v16h16v-16h16V91h-16V75zM298 43v16h16v16h17V59h16V43h-16V27h-17v16zM298 172h16v-16h-16v-16h-16v16h-16v16h16v17h16zM363 140h-16v16h-16v16h16v17h16v-17h16v-16h-16zM314 189v16h-16v16h16v16h17v-16h16v-16h-16v-16zM322.5 121c-5.6 0-10.1 4.5-10.1 10.1v.6c0 5.6 4.5 10.1 10.1 10.1s10.1-4.5 10.1-10.1v-.3-.3c.1-5.6-4.5-10.1-10.1-10.1z"/><circle fill="#FFF" cx="192.9" cy="131.8" r="10.1"/><circle fill="#FFF" cx="257.8" cy="131.8" r="10.1"/><path fill="#FFF" d="M250 189v16h-17v16h17v16h16v-16h16v-16h-16v-16zM185 189v16h-16v16h16v16h16v-16h16v-16h-16v-16zM217 140v16h-16v16h16v17h16v-17h17v-16h-17v-16z"/><circle fill="#FFF" cx="31" cy="245.2" r="10.1"/><circle fill="#FFF" cx="95.8" cy="245.2" r="10.1"/><path fill="#FFF" d="M104 351v-17h16v-16h-16v-16H88v16H71v16h17v17zM39 351v-17h16v-16H39v-16H23v16H7v16h16v17zM71 302v-16h17v-16H71v-17H55v17H39v16h16v16zM63.3 368.7c5.6 0 10.1-4.5 10.1-10.1v-.3-.3c0-5.6-4.5-10.1-10.1-10.1s-10.1 4.5-10.1 10.1v.6c0 5.6 4.6 10.1 10.1 10.1z"/><circle fill="#FFF" cx="95.8" cy="472" r="10.1"/><path fill="#FFF" d="M104 415v-16h16v-16h-16v-16H88v16H71v16h17v16zM88 448v-16H71v-17H55v17H39v16h16v16h16v-16z"/><circle fill="#FFF" cx="128.1" cy="358.6" r="10.1"/><path fill="#FFF" d="M136 302v-16h16v-16h-16v-17h-16v17h-16v16h16v16zM169 351v-17h16v-16h-16v-16h-17v16h-16v16h16v17zM160.6 234.4c-5.6 0-10.1 4.5-10.1 10.1v.6c0 5.6 4.5 10.1 10.1 10.1s10.1-4.5 10.1-10.1v-.3-.3c0-5.6-4.6-10.1-10.1-10.1zM152 448v-16h-16v-17h-16v17h-16v16h16v16h16v-16zM169 415v-16h16v-16h-16v-16h-17v16h-16v16h16v16z"/><circle fill="#FFF" cx="160.6" cy="472" r="10.1"/><circle fill="#FFF" cx="290.1" cy="245.2" r="10.1"/><circle fill="#FFF" cx="355" cy="245.2" r="10.1"/><path fill="#FFF" d="M363 302h-16v16h-16v16h16v17h16v-17h16v-16h-16zM282 302v16h-16v16h16v17h16v-17h16v-16h-16v-16zM331 286h16v-16h-16v-17h-17v17h-16v16h16v16h17z"/><circle fill="#FFF" cx="290.1" cy="472" r="10.1"/><circle fill="#FFF" cx="355" cy="472" r="10.1"/><path fill="#FFF" d="M298 415v-16h16v-16h-16v-16h-16v16h-16v16h16v16zM363 367h-16v16h-16v16h16v16h16v-16h16v-16h-16zM347 448v-16h-16v-17h-17v17h-16v16h16v16h17v-16zM322.5 347.8c-5.6 0-10.1 4.5-10.1 10.1v.6c0 5.6 4.5 10.1 10.1 10.1s10.1-4.5 10.1-10.1v-.3-.3c.1-5.6-4.5-10.1-10.1-10.1z"/><circle fill="#FFF" cx="192.9" cy="358.6" r="10.1"/><circle fill="#FFF" cx="257.8" cy="358.6" r="10.1"/><path fill="#FFF" d="M201 302v-16h16v-16h-16v-17h-16v17h-16v16h16v16zM266 302v-16h16v-16h-16v-17h-16v17h-17v16h17v16zM233 351v-17h17v-16h-17v-16h-16v16h-16v16h16v17zM225.4 234.4c-5.6 0-10.1 4.5-10.1 10.1v.6c0 5.6 4.5 10.1 10.1 10.1s10.1-4.5 10.1-10.1v-.3-.3c0-5.6-4.6-10.1-10.1-10.1zM282 448v-16h-16v-17h-16v17h-17v16h17v16h16v-16zM217 448v-16h-16v-17h-16v17h-16v16h16v16h16v-16zM233 415v-16h17v-16h-17v-16h-16v16h-16v16h16v16z"/><circle fill="#FFF" cx="225.4" cy="472" r="10.1"/><circle fill="#FFF" cx="487.2" cy="18.4" r="10.1"/><circle fill="#FFF" cx="552" cy="18.4" r="10.1"/><path fill="#FFF" d="M544 75v16h-16v17h16v16h16v-16h16V91h-16V75zM479 75v16h-16v17h16v16h16v-16h17V91h-17V75zM495 43v16h17v16h16V59h16V43h-16V27h-16v16zM479 140v16h-16v16h16v17h16v-17h17v-16h-17v-16zM544 140v16h-16v16h16v17h16v-17h16v-16h-16v-16zM512 189v16h-17v16h17v16h16v-16h16v-16h-16v-16zM519.7 121c-5.6 0-10.1 4.5-10.1 10.1v.6c0 5.6 4.5 10.1 10.1 10.1s10.1-4.5 10.1-10.1v-.3-.3c0-5.6-4.6-10.1-10.1-10.1z"/><circle fill="#FFF" cx="584.5" cy="131.8" r="10.1"/><path fill="#FFF" d="M560 43v16h16v16h17V59h16V43h-16V27h-17v16zM609 75v16h-16v17h16v16h16v-16h16V91h-16V75z"/><circle fill="#FFF" cx="616.8" cy="17.7" r="10.1"/><path fill="#FFF" d="M576 189v16h-16v16h16v16h17v-16h16v-16h-16v-16zM609 140v16h-16v16h16v17h16v-17h16v-16h-16v-16z"/><circle fill="#FFF" cx="390" cy="131.8" r="10.1"/><circle fill="#FFF" cx="454.9" cy="131.8" r="10.1"/><path fill="#FFF" d="M382 75h16V59h16V43h-16V27h-16v16h-16v16h16zM431 43v16h16v16h16V59h16V43h-16V27h-16v16zM414 75v16h-16v17h16v16h17v-16h16V91h-16V75z"/><circle fill="#FFF" cx="422.5" cy="17.7" r="10.1"/><path fill="#FFF" d="M447 189v16h-16v16h16v16h16v-16h16v-16h-16v-16zM382 237h16v-16h16v-16h-16v-16h-16v16h-16v16h16zM431 189v-17h16v-16h-16v-16h-17v16h-16v16h16v17zM422.5 255.3c5.6 0 10.1-4.5 10.1-10.1v-.3-.3c0-5.6-4.5-10.1-10.1-10.1s-10.1 4.5-10.1 10.1v.6c-.1 5.6 4.5 10.1 10.1 10.1z"/><circle fill="#FFF" cx="649.2" cy="131.8" r="10.1"/><circle fill="#FFF" cx="714" cy="131.8" r="10.1"/><path fill="#FFF" d="M625 43v16h16v16h16V59h17V43h-17V27h-16v16zM641 189v16h-16v16h16v16h16v-16h17v-16h-17v-16zM674 140v16h-17v16h17v17h16v-17h16v-16h-16v-16z"/><circle fill="#FFF" cx="487.2" cy="245.2" r="10.1"/><circle fill="#FFF" cx="552" cy="245.2" r="10.1"/><path fill="#FFF" d="M560 351v-17h16v-16h-16v-16h-16v16h-16v16h16v17zM495 351v-17h17v-16h-17v-16h-16v16h-16v16h16v17zM528 302v-16h16v-16h-16v-17h-16v17h-17v16h17v16zM519.7 368.7c5.6 0 10.1-4.5 10.1-10.1v-.3-.3c0-5.6-4.5-10.1-10.1-10.1s-10.1 4.5-10.1 10.1v.6c-.1 5.6 4.5 10.1 10.1 10.1z"/><circle fill="#FFF" cx="487.2" cy="472" r="10.1"/><circle fill="#FFF" cx="552" cy="472" r="10.1"/><path fill="#FFF" d="M495 415v-16h17v-16h-17v-16h-16v16h-16v16h16v16zM560 415v-16h16v-16h-16v-16h-16v16h-16v16h16v16zM544 448v-16h-16v-17h-16v17h-17v16h17v16h16v-16z"/><circle fill="#FFF" cx="584.5" cy="358.6" r="10.1"/><path fill="#FFF" d="M593 302v-16h16v-16h-16v-17h-17v17h-16v16h16v16zM625 351v-17h16v-16h-16v-16h-16v16h-16v16h16v17zM616.8 234.4c-5.6 0-10.1 4.5-10.1 10.1v.6c0 5.6 4.5 10.1 10.1 10.1s10.1-4.5 10.1-10.1v-.3-.3c.1-5.6-4.5-10.1-10.1-10.1zM609 448v-16h-16v-17h-17v17h-16v16h16v16h17v-16zM625 415v-16h16v-16h-16v-16h-16v16h-16v16h16v16z"/><circle fill="#FFF" cx="616.8" cy="472" r="10.1"/><circle fill="#FFF" cx="390" cy="358.6" r="10.1"/><circle fill="#FFF" cx="454.9" cy="358.6" r="10.1"/><path fill="#FFF" d="M382 302h16v-16h16v-16h-16v-17h-16v17h-16v16h16zM463 302v-16h16v-16h-16v-17h-16v17h-16v16h16v16zM414 318h-16v16h16v17h17v-17h16v-16h-16v-16h-17zM479 448v-16h-16v-17h-16v17h-16v16h16v16h16v-16zM414 448v-16h-16v-17h-16v17h-16v16h16v16h16v-16zM431 415v-16h16v-16h-16v-16h-17v16h-16v16h16v16z"/><circle fill="#FFF" cx="422.5" cy="472" r="10.1"/><circle fill="#FFF" cx="649.2" cy="358.6" r="10.1"/><path fill="#FFF" d="M681.7 234.4c-5.6 0-10.1 4.5-10.1 10.1v.6c0 5.6 4.5 10.1 10.1 10.1s10.1-4.5 10.1-10.1v-.3-.3c0-5.6-4.6-10.1-10.1-10.1zM738 448v-16h-16v-17h-16v17h-16v16h16v16h16v-16zM674 448v-16h-17v-17h-16v17h-16v16h16v16h16v-16z"/><circle fill="#FFF" cx="681.7" cy="472" r="10.1"/></svg>