<svg id="Layer_1" xmlns="http://www.w3.org/2000/svg" viewBox="0 0 560 310"><style>.st0{fill:#eec562}</style><title>Mask</title><g id="Page-1"><g id="Artboard-1"><g id="Rectangle-497-_x2B_-Page-1"><g id="Pattern"><g id="Fill-1-_x2B_-Fill-1"><path id="Fill-1" class="st0" d="M108.5-4c-4.1 0-7.5 3.4-7.5 7.5s3.4 7.5 7.5 7.5 7.5-3.4 7.5-7.5-3.4-7.5-7.5-7.5zm48 0c-4.1 0-7.5 3.4-7.5 7.5s3.4 7.5 7.5 7.5 7.5-3.4 7.5-7.5-3.4-7.5-7.5-7.5zM114 82V70h12V58h-12V46h-12v12H90v12h12v12h12zm24-36V34h12V22h-12V10h-12v12h-12v12h12v12h12zm-5.5 50c4.1 0 7.5-3.5 7.5-7.7V88v-.3c0-4.3-3.4-7.7-7.5-7.7s-7.5 3.5-7.5 7.7v.6c0 4.2 3.4 7.7 7.5 7.7zm24 68c-4.1 0-7.5 3.4-7.5 7.5s3.4 7.5 7.5 7.5 7.5-3.4 7.5-7.5-3.4-7.5-7.5-7.5zM114 130v-12h12v-12h-12V94h-12v12H90v12h12v12h12zm48 0v-12h12v-12h-12V94h-12v12h-12v12h12v12h12zm-12 24v-12h-12v-12h-12v12h-12v12h12v12h12v-12h12zm30.5-59c4.1 0 7.5-3.4 7.5-7.5s-3.4-7.5-7.5-7.5-7.5 3.4-7.5 7.5 3.4 7.5 7.5 7.5zm5.5-49V34h12V22h-12V10h-12v12h-12v12h12v12h12zm24 36V70h12V58h-12V46h-12v12h-12v12h12v12h12zm-5.5-86c-4.1 0-7.5 3.5-7.5 7.7v.6c0 4.3 3.4 7.7 7.5 7.7s7.5-3.5 7.5-7.7V4v-.3c0-4.2-3.4-7.7-7.5-7.7zM198 154v-12h-12v-12h-12v12h-12v12h12v12h12v-12h12zm12-24v-12h12v-12h-12V94h-12v12h-12v12h12v12h12zm-5.5 34c-4.1 0-7.5 3.4-7.5 7.5s3.4 7.5 7.5 7.5 7.5-3.4 7.5-7.5-3.4-7.5-7.5-7.5zm-168-84c-4.1 0-7.5 3.4-7.5 7.5s3.4 7.5 7.5 7.5 7.5-3.4 7.5-7.5-3.4-7.5-7.5-7.5zM30 46h12V34h12V22H42V10H30v12H18v12h12v12zm36 84v-12h12v-12H66V94H54v12H42v12h12v12h12zM300.5-4c-4.1 0-7.5 3.4-7.5 7.5s3.4 7.5 7.5 7.5 7.5-3.4 7.5-7.5-3.4-7.5-7.5-7.5zm48 15c4.1 0 7.5-3.4 7.5-7.5S352.6-4 348.5-4 341-.6 341 3.5s3.4 7.5 7.5 7.5zm5.5 35h-12v12h-12v12h12v12h12V70h12V58h-12V46zm-60 0v12h-12v12h12v12h12V70h12V58h-12V46h-12zm36-12h12V22h-12V10h-12v12h-12v12h12v12h12V34zm-29.5 130c-4.1 0-7.5 3.4-7.5 7.5s3.4 7.5 7.5 7.5 7.5-3.4 7.5-7.5-3.4-7.5-7.5-7.5zm48 0c-4.1 0-7.5 3.4-7.5 7.5s3.4 7.5 7.5 7.5 7.5-3.4 7.5-7.5-3.4-7.5-7.5-7.5zM306 130v-12h12v-12h-12V94h-12v12h-12v12h12v12h12zm48-36h-12v12h-12v12h12v12h12v-12h12v-12h-12V94zm-12 60v-12h-12v-12h-12v12h-12v12h12v12h12v-12h12zm-17.5-74c-4.1 0-7.5 3.5-7.5 7.7v.6c0 4.3 3.4 7.7 7.5 7.7s7.5-3.5 7.5-7.7V88v-.3c0-4.2-3.4-7.7-7.5-7.7zm-96 15c4.1 0 7.5-3.4 7.5-7.5s-3.4-7.5-7.5-7.5-7.5 3.4-7.5 7.5 3.4 7.5 7.5 7.5zm48 0c4.1 0 7.5-3.4 7.5-7.5s-3.4-7.5-7.5-7.5-7.5 3.4-7.5 7.5 3.4 7.5 7.5 7.5zM234 46V34h12V22h-12V10h-12v12h-12v12h12v12h12zm48 0V34h12V22h-12V10h-12v12h-12v12h12v12h12zm-24 36V70h12V58h-12V46h-12v12h-12v12h12v12h12zm-5.5-86c-4.1 0-7.5 3.5-7.5 7.7v.6c0 4.3 3.4 7.7 7.5 7.7s7.5-3.5 7.5-7.7V4v-.3c0-4.2-3.4-7.7-7.5-7.7zM294 154v-12h-12v-12h-12v12h-12v12h12v12h12v-12h12zm-48 0v-12h-12v-12h-12v12h-12v12h12v12h12v-12h12zm12-24v-12h12v-12h-12V94h-12v12h-12v12h12v12h12zm-5.5 34c-4.1 0-7.5 3.4-7.5 7.5s3.4 7.5 7.5 7.5 7.5-3.4 7.5-7.5-3.4-7.5-7.5-7.5zm146-152c4.1 0 7.5-3.5 7.5-7.7V4v-.3c0-4.3-3.4-7.7-7.5-7.7S391-.5 391 3.7v.6c0 4.2 3.4 7.7 7.5 7.7zm48-16c-4.1 0-7.5 3.4-7.5 7.5s3.4 7.5 7.5 7.5 7.5-3.4 7.5-7.5-3.4-7.5-7.5-7.5zm48 0c-4.1 0-7.5 3.4-7.5 7.5s3.4 7.5 7.5 7.5 7.5-3.4 7.5-7.5-3.4-7.5-7.5-7.5zm5.5 86V70h12V58h-12V46h-12v12h-12v12h12v12h12zm-48 0V70h12V58h-12V46h-12v12h-12v12h12v12h12zm24-36V34h12V22h-12V10h-12v12h-12v12h12v12h12zm-5.5 50c4.1 0 7.5-3.5 7.5-7.7V88v-.3c0-4.3-3.4-7.7-7.5-7.7s-7.5 3.5-7.5 7.7v.6c0 4.2 3.4 7.7 7.5 7.7zm-24 68c-4.1 0-7.5 3.4-7.5 7.5s3.4 7.5 7.5 7.5 7.5-3.4 7.5-7.5-3.4-7.5-7.5-7.5zm48 0c-4.1 0-7.5 3.4-7.5 7.5s3.4 7.5 7.5 7.5 7.5-3.4 7.5-7.5-3.4-7.5-7.5-7.5zM452 130v-12h12v-12h-12V94h-12v12h-12v12h12v12h12zm48 0v-12h12v-12h-12V94h-12v12h-12v12h12v12h12zm-12 24v-12h-12v-12h-12v12h-12v12h12v12h12v-12h12zm30.5-59c4.1 0 7.5-3.4 7.5-7.5s-3.4-7.5-7.5-7.5-7.5 3.4-7.5 7.5 3.4 7.5 7.5 7.5zm5.5-49V34h12V22h-12V10h-12v12h-12v12h12v12h12zm12 108v-12h-12v-12h-12v12h-12v12h12v12h12v-12h12zm12-24v-12h12v-12h-12V94h-12v12h-12v12h12v12h12zm-5.5 34c-4.1 0-7.5 3.4-7.5 7.5s3.4 7.5 7.5 7.5 7.5-3.4 7.5-7.5-3.4-7.5-7.5-7.5zm-168-84c-4.1 0-7.5 3.4-7.5 7.5s3.4 7.5 7.5 7.5 7.5-3.4 7.5-7.5-3.4-7.5-7.5-7.5zm48 15c4.1 0 7.5-3.4 7.5-7.5s-3.4-7.5-7.5-7.5-7.5 3.4-7.5 7.5 3.4 7.5 7.5 7.5zM368 46h12V34h12V22h-12V10h-12v12h-12v12h12v12zm60 0V34h12V22h-12V10h-12v12h-12v12h12v12h12zm-36 12h-12v12h12v12h12V70h12V58h-12V46h-12v12zm48 96v-12h-12v-12h-12v12h-12v12h12v12h12v-12h12zm-48 0v-12h-12v-12h-12v12h-12v12h12v12h12v-12h12zm12-24v-12h12v-12h-12V94h-12v12h-12v12h12v12h12zm-5.5 34c-4.1 0-7.5 3.4-7.5 7.5s3.4 7.5 7.5 7.5 7.5-3.4 7.5-7.5-3.4-7.5-7.5-7.5z"/><path id="Fill-1_1_" class="st0" d="M156.5 164c-4.1 0-7.5 3.4-7.5 7.5s3.4 7.5 7.5 7.5 7.5-3.4 7.5-7.5-3.4-7.5-7.5-7.5zm48 0c-4.1 0-7.5 3.4-7.5 7.5s3.4 7.5 7.5 7.5 7.5-3.4 7.5-7.5-3.4-7.5-7.5-7.5zM162 250v-12h12v-12h-12v-12h-12v12h-12v12h12v12h12zm24-36v-12h12v-12h-12v-12h-12v12h-12v12h12v12h12zm-5.5 50c4.1 0 7.5-3.5 7.5-7.7v-.3-.3c0-4.3-3.4-7.7-7.5-7.7s-7.5 3.5-7.5 7.7v.6c0 4.2 3.4 7.7 7.5 7.7zM162 298v-12h12v-12h-12v-12h-12v12h-12v12h12v12h12zm48 0v-12h12v-12h-12v-12h-12v12h-12v12h12v12h12zm-12 24v-12h-12v-12h-12v12h-12v12h12v12h12v-12h12zm30.5-59c4.1 0 7.5-3.4 7.5-7.5s-3.4-7.5-7.5-7.5-7.5 3.4-7.5 7.5 3.4 7.5 7.5 7.5zm5.5-49v-12h12v-12h-12v-12h-12v12h-12v12h12v12h12zm24 36v-12h12v-12h-12v-12h-12v12h-12v12h12v12h12zm-5.5-86c-4.1 0-7.5 3.5-7.5 7.7v.6c0 4.3 3.4 7.7 7.5 7.7s7.5-3.5 7.5-7.7v-.3-.3c0-4.2-3.4-7.7-7.5-7.7zM246 322v-12h-12v-12h-12v12h-12v12h12v12h12v-12h12zm12-24v-12h12v-12h-12v-12h-12v12h-12v12h12v12h12zm-144 0v-12h12v-12h-12v-12h-12v12H90v12h12v12h12zm234.5-134c-4.1 0-7.5 3.4-7.5 7.5s3.4 7.5 7.5 7.5 7.5-3.4 7.5-7.5-3.4-7.5-7.5-7.5zm48 15c4.1 0 7.5-3.4 7.5-7.5s-3.4-7.5-7.5-7.5-7.5 3.4-7.5 7.5 3.4 7.5 7.5 7.5zm5.5 35h-12v12h-12v12h12v12h12v-12h12v-12h-12v-12zm-60 0v12h-12v12h12v12h12v-12h12v-12h-12v-12h-12zm36-12h12v-12h-12v-12h-12v12h-12v12h12v12h12v-12zm-24 96v-12h12v-12h-12v-12h-12v12h-12v12h12v12h12zm48-36h-12v12h-12v12h12v12h12v-12h12v-12h-12v-12zm-12 60v-12h-12v-12h-12v12h-12v12h12v12h12v-12h12zm-17.5-74c-4.1 0-7.5 3.5-7.5 7.7v.6c0 4.3 3.4 7.7 7.5 7.7s7.5-3.5 7.5-7.7v-.3-.3c0-4.2-3.4-7.7-7.5-7.7zm-96 15c4.1 0 7.5-3.4 7.5-7.5s-3.4-7.5-7.5-7.5-7.5 3.4-7.5 7.5 3.4 7.5 7.5 7.5zm48 0c4.1 0 7.5-3.4 7.5-7.5s-3.4-7.5-7.5-7.5-7.5 3.4-7.5 7.5 3.4 7.5 7.5 7.5zM282 214v-12h12v-12h-12v-12h-12v12h-12v12h12v12h12zm48 0v-12h12v-12h-12v-12h-12v12h-12v12h12v12h12zm-24 36v-12h12v-12h-12v-12h-12v12h-12v12h12v12h12zm-5.5-86c-4.1 0-7.5 3.5-7.5 7.7v.6c0 4.3 3.4 7.7 7.5 7.7s7.5-3.5 7.5-7.7v-.3-.3c0-4.2-3.4-7.7-7.5-7.7zM342 322v-12h-12v-12h-12v12h-12v12h12v12h12v-12h12zm-48 0v-12h-12v-12h-12v12h-12v12h12v12h12v-12h12zm12-24v-12h12v-12h-12v-12h-12v12h-12v12h12v12h12zm140.5-118c4.1 0 7.5-3.5 7.5-7.7v-.3-.3c0-4.3-3.4-7.7-7.5-7.7s-7.5 3.5-7.5 7.7v.6c0 4.2 3.4 7.7 7.5 7.7zm48-16c-4.1 0-7.5 3.4-7.5 7.5s3.4 7.5 7.5 7.5 7.5-3.4 7.5-7.5-3.4-7.5-7.5-7.5zm48 0c-4.1 0-7.5 3.4-7.5 7.5s3.4 7.5 7.5 7.5 7.5-3.4 7.5-7.5-3.4-7.5-7.5-7.5zM500 250v-12h12v-12h-12v-12h-12v12h-12v12h12v12h12zm24-36v-12h12v-12h-12v-12h-12v12h-12v12h12v12h12zm-5.5 50c4.1 0 7.5-3.5 7.5-7.7v-.3-.3c0-4.3-3.4-7.7-7.5-7.7s-7.5 3.5-7.5 7.7v.6c0 4.2 3.4 7.7 7.5 7.7zM500 298v-12h12v-12h-12v-12h-12v12h-12v12h12v12h12zm-77.5-50c-4.1 0-7.5 3.4-7.5 7.5s3.4 7.5 7.5 7.5 7.5-3.4 7.5-7.5-3.4-7.5-7.5-7.5zm48 15c4.1 0 7.5-3.4 7.5-7.5s-3.4-7.5-7.5-7.5-7.5 3.4-7.5 7.5 3.4 7.5 7.5 7.5zM416 214h12v-12h12v-12h-12v-12h-12v12h-12v12h12v12zm60 0v-12h12v-12h-12v-12h-12v12h-12v12h12v12h12zm-36 12h-12v12h12v12h12v-12h12v-12h-12v-12h-12v12zm48 96v-12h-12v-12h-12v12h-12v12h12v12h12v-12h12zm-48 0v-12h-12v-12h-12v12h-12v12h12v12h12v-12h12zm12-24v-12h12v-12h-12v-12h-12v12h-12v12h12v12h12z"/></g></g></g></g></g></svg>