<svg width="542" height="338" viewBox="0 0 542 338" xmlns="http://www.w3.org/2000/svg"><title>background_plus-mustard</title><g fill="#00C5B5" fill-rule="evenodd"><path d="M90.5 0C86.4 0 83 3.4 83 7.5s3.4 7.5 7.5 7.5S98 11.6 98 7.5 94.6 0 90.5 0zm48 0c-4.1 0-7.5 3.4-7.5 7.5s3.4 7.5 7.5 7.5 7.5-3.4 7.5-7.5-3.4-7.5-7.5-7.5zM96 86V74h12V62H96V50H84v12H72v12h12v12h12zm24-36V38h12V26h-12V14h-12v12H96v12h12v12h12zm-5.5 50c4.1 0 7.5-3.5 7.5-7.7v-.6c0-4.3-3.4-7.7-7.5-7.7s-7.5 3.5-7.5 7.7v.6c0 4.2 3.4 7.7 7.5 7.7zm24 68c-4.1 0-7.5 3.4-7.5 7.5s3.4 7.5 7.5 7.5 7.5-3.4 7.5-7.5-3.4-7.5-7.5-7.5zM96 134v-12h12v-12H96V98H84v12H72v12h12v12h12zm48 0v-12h12v-12h-12V98h-12v12h-12v12h12v12h12zm-12 24v-12h-12v-12h-12v12H96v12h12v12h12v-12h12zm30.5-59c4.1 0 7.5-3.4 7.5-7.5s-3.4-7.5-7.5-7.5-7.5 3.4-7.5 7.5 3.4 7.5 7.5 7.5zm5.5-49V38h12V26h-12V14h-12v12h-12v12h12v12h12zm24 36V74h12V62h-12V50h-12v12h-12v12h12v12h12zm-5.5-86c-4.1 0-7.5 3.5-7.5 7.7v.6c0 4.3 3.4 7.7 7.5 7.7s7.5-3.5 7.5-7.7v-.6c0-4.2-3.4-7.7-7.5-7.7zM180 158v-12h-12v-12h-12v12h-12v12h12v12h12v-12h12zm12-24v-12h12v-12h-12V98h-12v12h-12v12h12v12h12zm-5.5 34c-4.1 0-7.5 3.4-7.5 7.5s3.4 7.5 7.5 7.5 7.5-3.4 7.5-7.5-3.4-7.5-7.5-7.5zm-168-84c-4.1 0-7.5 3.4-7.5 7.5s3.4 7.5 7.5 7.5 7.5-3.4 7.5-7.5-3.4-7.5-7.5-7.5zM12 50h12V38h12V26H24V14H12v12H0v12h12v12zm36 84v-12h12v-12H48V98H36v12H24v12h12v12h12zM282.5 0c-4.1 0-7.5 3.4-7.5 7.5s3.4 7.5 7.5 7.5 7.5-3.4 7.5-7.5-3.4-7.5-7.5-7.5zm48 15c4.1 0 7.5-3.4 7.5-7.5S334.6 0 330.5 0 323 3.4 323 7.5s3.4 7.5 7.5 7.5zm5.5 35h-12v12h-12v12h12v12h12V74h12V62h-12V50zm-60 0v12h-12v12h12v12h12V74h12V62h-12V50h-12zm36-12h12V26h-12V14h-12v12h-12v12h12v12h12V38zm-29.5 130c-4.1 0-7.5 3.4-7.5 7.5s3.4 7.5 7.5 7.5 7.5-3.4 7.5-7.5-3.4-7.5-7.5-7.5zm48 0c-4.1 0-7.5 3.4-7.5 7.5s3.4 7.5 7.5 7.5 7.5-3.4 7.5-7.5-3.4-7.5-7.5-7.5zM288 134v-12h12v-12h-12V98h-12v12h-12v12h12v12h12zm48-36h-12v12h-12v12h12v12h12v-12h12v-12h-12V98zm-12 60v-12h-12v-12h-12v12h-12v12h12v12h12v-12h12zm-17.5-74c-4.1 0-7.5 3.5-7.5 7.7v.6c0 4.3 3.4 7.7 7.5 7.7s7.5-3.5 7.5-7.7v-.6c0-4.2-3.4-7.7-7.5-7.7zm-96 15c4.1 0 7.5-3.4 7.5-7.5s-3.4-7.5-7.5-7.5-7.5 3.4-7.5 7.5 3.4 7.5 7.5 7.5zm48 0c4.1 0 7.5-3.4 7.5-7.5s-3.4-7.5-7.5-7.5-7.5 3.4-7.5 7.5 3.4 7.5 7.5 7.5zM216 50V38h12V26h-12V14h-12v12h-12v12h12v12h12zm48 0V38h12V26h-12V14h-12v12h-12v12h12v12h12zm-24 36V74h12V62h-12V50h-12v12h-12v12h12v12h12zm-5.5-86c-4.1 0-7.5 3.5-7.5 7.7v.6c0 4.3 3.4 7.7 7.5 7.7s7.5-3.5 7.5-7.7v-.6c0-4.2-3.4-7.7-7.5-7.7zM276 158v-12h-12v-12h-12v12h-12v12h12v12h12v-12h12zm-48 0v-12h-12v-12h-12v12h-12v12h12v12h12v-12h12zm12-24v-12h12v-12h-12V98h-12v12h-12v12h12v12h12zm-5.5 34c-4.1 0-7.5 3.4-7.5 7.5s3.4 7.5 7.5 7.5 7.5-3.4 7.5-7.5-3.4-7.5-7.5-7.5zm146-152c4.1 0 7.5-3.5 7.5-7.7v-.6c0-4.3-3.4-7.7-7.5-7.7S373 3.5 373 7.7v.6c0 4.2 3.4 7.7 7.5 7.7zm48-16c-4.1 0-7.5 3.4-7.5 7.5s3.4 7.5 7.5 7.5 7.5-3.4 7.5-7.5-3.4-7.5-7.5-7.5zm48 0c-4.1 0-7.5 3.4-7.5 7.5s3.4 7.5 7.5 7.5 7.5-3.4 7.5-7.5-3.4-7.5-7.5-7.5zm5.5 86V74h12V62h-12V50h-12v12h-12v12h12v12h12zm-48 0V74h12V62h-12V50h-12v12h-12v12h12v12h12zm24-36V38h12V26h-12V14h-12v12h-12v12h12v12h12zm-5.5 50c4.1 0 7.5-3.5 7.5-7.7v-.6c0-4.3-3.4-7.7-7.5-7.7s-7.5 3.5-7.5 7.7v.6c0 4.2 3.4 7.7 7.5 7.7zm-24 68c-4.1 0-7.5 3.4-7.5 7.5s3.4 7.5 7.5 7.5 7.5-3.4 7.5-7.5-3.4-7.5-7.5-7.5zm48 0c-4.1 0-7.5 3.4-7.5 7.5s3.4 7.5 7.5 7.5 7.5-3.4 7.5-7.5-3.4-7.5-7.5-7.5zM434 134v-12h12v-12h-12V98h-12v12h-12v12h12v12h12zm48 0v-12h12v-12h-12V98h-12v12h-12v12h12v12h12zm-12 24v-12h-12v-12h-12v12h-12v12h12v12h12v-12h12zm30.5-59c4.1 0 7.5-3.4 7.5-7.5s-3.4-7.5-7.5-7.5-7.5 3.4-7.5 7.5 3.4 7.5 7.5 7.5zm5.5-49V38h12V26h-12V14h-12v12h-12v12h12v12h12zm12 108v-12h-12v-12h-12v12h-12v12h12v12h12v-12h12zm12-24v-12h12v-12h-12V98h-12v12h-12v12h12v12h12zm-5.5 34c-4.1 0-7.5 3.4-7.5 7.5s3.4 7.5 7.5 7.5 7.5-3.4 7.5-7.5-3.4-7.5-7.5-7.5zm-168-84c-4.1 0-7.5 3.4-7.5 7.5s3.4 7.5 7.5 7.5 7.5-3.4 7.5-7.5-3.4-7.5-7.5-7.5zm48 15c4.1 0 7.5-3.4 7.5-7.5s-3.4-7.5-7.5-7.5-7.5 3.4-7.5 7.5 3.4 7.5 7.5 7.5zM350 50h12V38h12V26h-12V14h-12v12h-12v12h12v12zm60 0V38h12V26h-12V14h-12v12h-12v12h12v12h12zm-36 12h-12v12h12v12h12V74h12V62h-12V50h-12v12zm48 96v-12h-12v-12h-12v12h-12v12h12v12h12v-12h12zm-48 0v-12h-12v-12h-12v12h-12v12h12v12h12v-12h12zm12-24v-12h12v-12h-12V98h-12v12h-12v12h12v12h12zm-5.5 34c-4.1 0-7.5 3.4-7.5 7.5s3.4 7.5 7.5 7.5 7.5-3.4 7.5-7.5-3.4-7.5-7.5-7.5z"/><path d="M138.5 168c-4.1 0-7.5 3.4-7.5 7.5s3.4 7.5 7.5 7.5 7.5-3.4 7.5-7.5-3.4-7.5-7.5-7.5zm48 0c-4.1 0-7.5 3.4-7.5 7.5s3.4 7.5 7.5 7.5 7.5-3.4 7.5-7.5-3.4-7.5-7.5-7.5zM144 254v-12h12v-12h-12v-12h-12v12h-12v12h12v12h12zm24-36v-12h12v-12h-12v-12h-12v12h-12v12h12v12h12zm-5.5 50c4.1 0 7.5-3.5 7.5-7.7v-.6c0-4.3-3.4-7.7-7.5-7.7s-7.5 3.5-7.5 7.7v.6c0 4.2 3.4 7.7 7.5 7.7zM144 302v-12h12v-12h-12v-12h-12v12h-12v12h12v12h12zm48 0v-12h12v-12h-12v-12h-12v12h-12v12h12v12h12zm-12 24v-12h-12v-12h-12v12h-12v12h12v12h12v-12h12zm30.5-59c4.1 0 7.5-3.4 7.5-7.5s-3.4-7.5-7.5-7.5-7.5 3.4-7.5 7.5 3.4 7.5 7.5 7.5zm5.5-49v-12h12v-12h-12v-12h-12v12h-12v12h12v12h12zm24 36v-12h12v-12h-12v-12h-12v12h-12v12h12v12h12zm-5.5-86c-4.1 0-7.5 3.5-7.5 7.7v.6c0 4.3 3.4 7.7 7.5 7.7s7.5-3.5 7.5-7.7v-.6c0-4.2-3.4-7.7-7.5-7.7zM228 326v-12h-12v-12h-12v12h-12v12h12v12h12v-12h12zm12-24v-12h12v-12h-12v-12h-12v12h-12v12h12v12h12zm-144 0v-12h12v-12H96v-12H84v12H72v12h12v12h12zm234.5-134c-4.1 0-7.5 3.4-7.5 7.5s3.4 7.5 7.5 7.5 7.5-3.4 7.5-7.5-3.4-7.5-7.5-7.5zm48 15c4.1 0 7.5-3.4 7.5-7.5s-3.4-7.5-7.5-7.5-7.5 3.4-7.5 7.5 3.4 7.5 7.5 7.5zm5.5 35h-12v12h-12v12h12v12h12v-12h12v-12h-12v-12zm-60 0v12h-12v12h12v12h12v-12h12v-12h-12v-12h-12zm36-12h12v-12h-12v-12h-12v12h-12v12h12v12h12v-12zm-24 96v-12h12v-12h-12v-12h-12v12h-12v12h12v12h12zm48-36h-12v12h-12v12h12v12h12v-12h12v-12h-12v-12zm-12 60v-12h-12v-12h-12v12h-12v12h12v12h12v-12h12zm-17.5-74c-4.1 0-7.5 3.5-7.5 7.7v.6c0 4.3 3.4 7.7 7.5 7.7s7.5-3.5 7.5-7.7v-.6c0-4.2-3.4-7.7-7.5-7.7zm-96 15c4.1 0 7.5-3.4 7.5-7.5s-3.4-7.5-7.5-7.5-7.5 3.4-7.5 7.5 3.4 7.5 7.5 7.5zm48 0c4.1 0 7.5-3.4 7.5-7.5s-3.4-7.5-7.5-7.5-7.5 3.4-7.5 7.5 3.4 7.5 7.5 7.5zM264 218v-12h12v-12h-12v-12h-12v12h-12v12h12v12h12zm48 0v-12h12v-12h-12v-12h-12v12h-12v12h12v12h12zm-24 36v-12h12v-12h-12v-12h-12v12h-12v12h12v12h12zm-5.5-86c-4.1 0-7.5 3.5-7.5 7.7v.6c0 4.3 3.4 7.7 7.5 7.7s7.5-3.5 7.5-7.7v-.6c0-4.2-3.4-7.7-7.5-7.7zM324 326v-12h-12v-12h-12v12h-12v12h12v12h12v-12h12zm-48 0v-12h-12v-12h-12v12h-12v12h12v12h12v-12h12zm12-24v-12h12v-12h-12v-12h-12v12h-12v12h12v12h12zm140.5-118c4.1 0 7.5-3.5 7.5-7.7v-.6c0-4.3-3.4-7.7-7.5-7.7s-7.5 3.5-7.5 7.7v.6c0 4.2 3.4 7.7 7.5 7.7zm48-16c-4.1 0-7.5 3.4-7.5 7.5s3.4 7.5 7.5 7.5 7.5-3.4 7.5-7.5-3.4-7.5-7.5-7.5zm48 0c-4.1 0-7.5 3.4-7.5 7.5s3.4 7.5 7.5 7.5 7.5-3.4 7.5-7.5-3.4-7.5-7.5-7.5zM482 254v-12h12v-12h-12v-12h-12v12h-12v12h12v12h12zm24-36v-12h12v-12h-12v-12h-12v12h-12v12h12v12h12zm-5.5 50c4.1 0 7.5-3.5 7.5-7.7v-.6c0-4.3-3.4-7.7-7.5-7.7s-7.5 3.5-7.5 7.7v.6c0 4.2 3.4 7.7 7.5 7.7zM482 302v-12h12v-12h-12v-12h-12v12h-12v12h12v12h12zm-77.5-50c-4.1 0-7.5 3.4-7.5 7.5s3.4 7.5 7.5 7.5 7.5-3.4 7.5-7.5-3.4-7.5-7.5-7.5zm48 15c4.1 0 7.5-3.4 7.5-7.5s-3.4-7.5-7.5-7.5-7.5 3.4-7.5 7.5 3.4 7.5 7.5 7.5zM398 218h12v-12h12v-12h-12v-12h-12v12h-12v12h12v12zm60 0v-12h12v-12h-12v-12h-12v12h-12v12h12v12h12zm-36 12h-12v12h12v12h12v-12h12v-12h-12v-12h-12v12zm48 96v-12h-12v-12h-12v12h-12v12h12v12h12v-12h12zm-48 0v-12h-12v-12h-12v12h-12v12h12v12h12v-12h12zm12-24v-12h12v-12h-12v-12h-12v12h-12v12h12v12h12z"/></g></svg>