<svg id="Layer_1" xmlns="http://www.w3.org/2000/svg" viewBox="0 0 560 310" enable-background="new 0 0 560 310"><style>.st0{fill:none}.st1{filter:url(#Adobe_OpacityMaskFilter)}.st2{fill:#FFF}.st3{mask:url(#mask-2)}.st4{fill:#eeede5}</style><title>Mask</title><g id="Page-1"><g id="Artboard-1"><g id="Rectangle-497-_x2B_-Page-1" transform="translate(-34)"><g id="Mask"><path id="path-1_1_" class="st0" d="M567 0H18v310h517.1l10.7-16.9 3.9-4.7 2.5-4.5 2.4-3.2v-6.3l4.2-7.3 9.5-11.6-2.9-11.9-10.8-3.5 4.2-18.4 16.7-17.6v-18.9l11.6-6.4 5.7-6.2-5.7-11.9-11.6-6.2 2-12.9 7.7-9.2 4.2-7.7 11.9-1.5-1.5-14.3-3.7-9.2-7.2-9.7-18.9-3.3-4.7-9.9-10.8-3.2V59.7l10.8-13.9 9.1-12.8L567 0z"/></g><defs><filter id="Adobe_OpacityMaskFilter" filterUnits="userSpaceOnUse" x="52" y="-4" width="734" height="351"><feColorMatrix values="1 0 0 0 0 0 1 0 0 0 0 0 1 0 0 0 0 0 1 0"/></filter></defs><mask maskUnits="userSpaceOnUse" x="52" y="-4" width="734" height="351" id="mask-2"><g class="st1"><path id="path-1" class="st2" d="M567 0H18v310h517.1l10.7-16.9 3.9-4.7 2.5-4.5 2.4-3.2v-6.3l4.2-7.3 9.5-11.6-2.9-11.9-10.8-3.5 4.2-18.4 16.7-17.6v-18.9l11.6-6.4 5.7-6.2-5.7-11.9-11.6-6.2 2-12.9 7.7-9.2 4.2-7.7 11.9-1.5-1.5-14.3-3.7-9.2-7.2-9.7-18.9-3.3-4.7-9.9-10.8-3.2V59.7l10.8-13.9 9.1-12.8L567 0z"/></g></mask><g id="Pattern" class="st3"><g id="Fill-1-_x2B_-Fill-1"><path id="Fill-1" class="st4" d="M142.5-4c-4.1 0-7.5 3.4-7.5 7.5s3.4 7.5 7.5 7.5 7.5-3.4 7.5-7.5-3.4-7.5-7.5-7.5zm48 0c-4.1 0-7.5 3.4-7.5 7.5s3.4 7.5 7.5 7.5 7.5-3.4 7.5-7.5-3.4-7.5-7.5-7.5zM148 82V70h12V58h-12V46h-12v12h-12v12h12v12h12zm24-36V34h12V22h-12V10h-12v12h-12v12h12v12h12zm-5.5 50c4.1 0 7.5-3.5 7.5-7.7V88v-.3c0-4.3-3.4-7.7-7.5-7.7s-7.5 3.5-7.5 7.7v.6c0 4.2 3.4 7.7 7.5 7.7zm24 68c-4.1 0-7.5 3.4-7.5 7.5s3.4 7.5 7.5 7.5 7.5-3.4 7.5-7.5-3.4-7.5-7.5-7.5zM148 130v-12h12v-12h-12V94h-12v12h-12v12h12v12h12zm48 0v-12h12v-12h-12V94h-12v12h-12v12h12v12h12zm-12 24v-12h-12v-12h-12v12h-12v12h12v12h12v-12h12zm30.5-59c4.1 0 7.5-3.4 7.5-7.5s-3.4-7.5-7.5-7.5-7.5 3.4-7.5 7.5 3.4 7.5 7.5 7.5zm5.5-49V34h12V22h-12V10h-12v12h-12v12h12v12h12zm24 36V70h12V58h-12V46h-12v12h-12v12h12v12h12zm-5.5-86c-4.1 0-7.5 3.5-7.5 7.7v.6c0 4.3 3.4 7.7 7.5 7.7s7.5-3.5 7.5-7.7V4v-.3c0-4.2-3.4-7.7-7.5-7.7zM232 154v-12h-12v-12h-12v12h-12v12h12v12h12v-12h12zm12-24v-12h12v-12h-12V94h-12v12h-12v12h12v12h12zm-5.5 34c-4.1 0-7.5 3.4-7.5 7.5s3.4 7.5 7.5 7.5 7.5-3.4 7.5-7.5-3.4-7.5-7.5-7.5zm-168-84c-4.1 0-7.5 3.4-7.5 7.5s3.4 7.5 7.5 7.5 7.5-3.4 7.5-7.5-3.4-7.5-7.5-7.5zM64 46h12V34h12V22H76V10H64v12H52v12h12v12zm36 84v-12h12v-12h-12V94H88v12H76v12h12v12h12zM334.5-4c-4.1 0-7.5 3.4-7.5 7.5s3.4 7.5 7.5 7.5 7.5-3.4 7.5-7.5-3.4-7.5-7.5-7.5zm48 15c4.1 0 7.5-3.4 7.5-7.5S386.6-4 382.5-4 375-.6 375 3.5s3.4 7.5 7.5 7.5zm5.5 35h-12v12h-12v12h12v12h12V70h12V58h-12V46zm-60 0v12h-12v12h12v12h12V70h12V58h-12V46h-12zm36-12h12V22h-12V10h-12v12h-12v12h12v12h12V34zm-29.5 130c-4.1 0-7.5 3.4-7.5 7.5s3.4 7.5 7.5 7.5 7.5-3.4 7.5-7.5-3.4-7.5-7.5-7.5zm48 0c-4.1 0-7.5 3.4-7.5 7.5s3.4 7.5 7.5 7.5 7.5-3.4 7.5-7.5-3.4-7.5-7.5-7.5zM340 130v-12h12v-12h-12V94h-12v12h-12v12h12v12h12zm48-36h-12v12h-12v12h12v12h12v-12h12v-12h-12V94zm-12 60v-12h-12v-12h-12v12h-12v12h12v12h12v-12h12zm-17.5-74c-4.1 0-7.5 3.5-7.5 7.7v.6c0 4.3 3.4 7.7 7.5 7.7s7.5-3.5 7.5-7.7V88v-.3c0-4.2-3.4-7.7-7.5-7.7zm-96 15c4.1 0 7.5-3.4 7.5-7.5s-3.4-7.5-7.5-7.5-7.5 3.4-7.5 7.5 3.4 7.5 7.5 7.5zm48 0c4.1 0 7.5-3.4 7.5-7.5s-3.4-7.5-7.5-7.5-7.5 3.4-7.5 7.5 3.4 7.5 7.5 7.5zM268 46V34h12V22h-12V10h-12v12h-12v12h12v12h12zm48 0V34h12V22h-12V10h-12v12h-12v12h12v12h12zm-24 36V70h12V58h-12V46h-12v12h-12v12h12v12h12zm-5.5-86c-4.1 0-7.5 3.5-7.5 7.7v.6c0 4.3 3.4 7.7 7.5 7.7s7.5-3.5 7.5-7.7V4v-.3c0-4.2-3.4-7.7-7.5-7.7zM328 154v-12h-12v-12h-12v12h-12v12h12v12h12v-12h12zm-48 0v-12h-12v-12h-12v12h-12v12h12v12h12v-12h12zm12-24v-12h12v-12h-12V94h-12v12h-12v12h12v12h12zm-5.5 34c-4.1 0-7.5 3.4-7.5 7.5s3.4 7.5 7.5 7.5 7.5-3.4 7.5-7.5-3.4-7.5-7.5-7.5zm146-152c4.1 0 7.5-3.5 7.5-7.7V4v-.3c0-4.3-3.4-7.7-7.5-7.7S425-.5 425 3.7v.6c0 4.2 3.4 7.7 7.5 7.7zm48-16c-4.1 0-7.5 3.4-7.5 7.5s3.4 7.5 7.5 7.5 7.5-3.4 7.5-7.5-3.4-7.5-7.5-7.5zm48 0c-4.1 0-7.5 3.4-7.5 7.5s3.4 7.5 7.5 7.5 7.5-3.4 7.5-7.5-3.4-7.5-7.5-7.5zm5.5 86V70h12V58h-12V46h-12v12h-12v12h12v12h12zm-48 0V70h12V58h-12V46h-12v12h-12v12h12v12h12zm24-36V34h12V22h-12V10h-12v12h-12v12h12v12h12zm-5.5 50c4.1 0 7.5-3.5 7.5-7.7V88v-.3c0-4.3-3.4-7.7-7.5-7.7s-7.5 3.5-7.5 7.7v.6c0 4.2 3.4 7.7 7.5 7.7zm-24 68c-4.1 0-7.5 3.4-7.5 7.5s3.4 7.5 7.5 7.5 7.5-3.4 7.5-7.5-3.4-7.5-7.5-7.5zm48 0c-4.1 0-7.5 3.4-7.5 7.5s3.4 7.5 7.5 7.5 7.5-3.4 7.5-7.5-3.4-7.5-7.5-7.5zM486 130v-12h12v-12h-12V94h-12v12h-12v12h12v12h12zm48 0v-12h12v-12h-12V94h-12v12h-12v12h12v12h12zm-12 24v-12h-12v-12h-12v12h-12v12h12v12h12v-12h12zm30.5-59c4.1 0 7.5-3.4 7.5-7.5s-3.4-7.5-7.5-7.5-7.5 3.4-7.5 7.5 3.4 7.5 7.5 7.5zm5.5-49V34h12V22h-12V10h-12v12h-12v12h12v12h12zm24 36V70h12V58h-12V46h-12v12h-12v12h12v12h12zm-5.5-86c-4.1 0-7.5 3.5-7.5 7.7v.6c0 4.3 3.4 7.7 7.5 7.7s7.5-3.5 7.5-7.7V4v-.3c0-4.2-3.4-7.7-7.5-7.7zM570 154v-12h-12v-12h-12v12h-12v12h12v12h12v-12h12zm12-24v-12h12v-12h-12V94h-12v12h-12v12h12v12h12zm-5.5 34c-4.1 0-7.5 3.4-7.5 7.5s3.4 7.5 7.5 7.5 7.5-3.4 7.5-7.5-3.4-7.5-7.5-7.5zm-168-84c-4.1 0-7.5 3.4-7.5 7.5s3.4 7.5 7.5 7.5 7.5-3.4 7.5-7.5-3.4-7.5-7.5-7.5zm48 15c4.1 0 7.5-3.4 7.5-7.5s-3.4-7.5-7.5-7.5-7.5 3.4-7.5 7.5 3.4 7.5 7.5 7.5zM402 46h12V34h12V22h-12V10h-12v12h-12v12h12v12zm60 0V34h12V22h-12V10h-12v12h-12v12h12v12h12zm-36 12h-12v12h12v12h12V70h12V58h-12V46h-12v12zm48 96v-12h-12v-12h-12v12h-12v12h12v12h12v-12h12zm-48 0v-12h-12v-12h-12v12h-12v12h12v12h12v-12h12zm12-24v-12h12v-12h-12V94h-12v12h-12v12h12v12h12zm-5.5 34c-4.1 0-7.5 3.4-7.5 7.5s3.4 7.5 7.5 7.5 7.5-3.4 7.5-7.5-3.4-7.5-7.5-7.5zm240-168c-4.1 0-7.5 3.4-7.5 7.5s3.4 7.5 7.5 7.5 7.5-3.4 7.5-7.5-3.4-7.5-7.5-7.5zm48 15c4.1 0 7.5-3.4 7.5-7.5S724.6-4 720.5-4 713-.6 713 3.5s3.4 7.5 7.5 7.5zm5.5 35h-12v12h-12v12h12v12h12V70h12V58h-12V46zm-60 0v12h-12v12h12v12h12V70h12V58h-12V46h-12zm36-12h12V22h-12V10h-12v12h-12v12h12v12h12V34zm-29.5 130c-4.1 0-7.5 3.4-7.5 7.5s3.4 7.5 7.5 7.5 7.5-3.4 7.5-7.5-3.4-7.5-7.5-7.5zm48 0c-4.1 0-7.5 3.4-7.5 7.5s3.4 7.5 7.5 7.5 7.5-3.4 7.5-7.5-3.4-7.5-7.5-7.5zM678 130v-12h12v-12h-12V94h-12v12h-12v12h12v12h12zm48-36h-12v12h-12v12h12v12h12v-12h12v-12h-12V94zm-12 60v-12h-12v-12h-12v12h-12v12h12v12h12v-12h12zm-17.5-74c-4.1 0-7.5 3.5-7.5 7.7v.6c0 4.3 3.4 7.7 7.5 7.7s7.5-3.5 7.5-7.7V88v-.3c0-4.2-3.4-7.7-7.5-7.7zm-96 15c4.1 0 7.5-3.4 7.5-7.5s-3.4-7.5-7.5-7.5-7.5 3.4-7.5 7.5 3.4 7.5 7.5 7.5zm48 0c4.1 0 7.5-3.4 7.5-7.5s-3.4-7.5-7.5-7.5-7.5 3.4-7.5 7.5 3.4 7.5 7.5 7.5zM606 46V34h12V22h-12V10h-12v12h-12v12h12v12h12zm48 0V34h12V22h-12V10h-12v12h-12v12h12v12h12zm-24 36V70h12V58h-12V46h-12v12h-12v12h12v12h12zm-5.5-86c-4.1 0-7.5 3.5-7.5 7.7v.6c0 4.3 3.4 7.7 7.5 7.7s7.5-3.5 7.5-7.7V4v-.3c0-4.2-3.4-7.7-7.5-7.7zM666 154v-12h-12v-12h-12v12h-12v12h12v12h12v-12h12zm-48 0v-12h-12v-12h-12v12h-12v12h12v12h12v-12h12zm12-24v-12h12v-12h-12V94h-12v12h-12v12h12v12h12zm-5.5 34c-4.1 0-7.5 3.4-7.5 7.5s3.4 7.5 7.5 7.5 7.5-3.4 7.5-7.5-3.4-7.5-7.5-7.5z"/><path id="Fill-1_1_" class="st4" d="M190.5 164c-4.1 0-7.5 3.4-7.5 7.5s3.4 7.5 7.5 7.5 7.5-3.4 7.5-7.5-3.4-7.5-7.5-7.5zm48 0c-4.1 0-7.5 3.4-7.5 7.5s3.4 7.5 7.5 7.5 7.5-3.4 7.5-7.5-3.4-7.5-7.5-7.5zM196 250v-12h12v-12h-12v-12h-12v12h-12v12h12v12h12zm24-36v-12h12v-12h-12v-12h-12v12h-12v12h12v12h12zm-5.5 50c4.1 0 7.5-3.5 7.5-7.7v-.3-.3c0-4.3-3.4-7.7-7.5-7.7s-7.5 3.5-7.5 7.7v.6c0 4.2 3.4 7.7 7.5 7.7zm24 68c-4.1 0-7.5 3.4-7.5 7.5s3.4 7.5 7.5 7.5 7.5-3.4 7.5-7.5-3.4-7.5-7.5-7.5zM196 298v-12h12v-12h-12v-12h-12v12h-12v12h12v12h12zm48 0v-12h12v-12h-12v-12h-12v12h-12v12h12v12h12zm-12 24v-12h-12v-12h-12v12h-12v12h12v12h12v-12h12zm30.5-59c4.1 0 7.5-3.4 7.5-7.5s-3.4-7.5-7.5-7.5-7.5 3.4-7.5 7.5 3.4 7.5 7.5 7.5zm5.5-49v-12h12v-12h-12v-12h-12v12h-12v12h12v12h12zm24 36v-12h12v-12h-12v-12h-12v12h-12v12h12v12h12zm-5.5-86c-4.1 0-7.5 3.5-7.5 7.7v.6c0 4.3 3.4 7.7 7.5 7.7s7.5-3.5 7.5-7.7v-.3-.3c0-4.2-3.4-7.7-7.5-7.7zM280 322v-12h-12v-12h-12v12h-12v12h12v12h12v-12h12zm12-24v-12h12v-12h-12v-12h-12v12h-12v12h12v12h12zm-5.5 34c-4.1 0-7.5 3.4-7.5 7.5s3.4 7.5 7.5 7.5 7.5-3.4 7.5-7.5-3.4-7.5-7.5-7.5zM148 298v-12h12v-12h-12v-12h-12v12h-12v12h12v12h12zm-5.5 34c-4.1 0-7.5 3.4-7.5 7.5s3.4 7.5 7.5 7.5 7.5-3.4 7.5-7.5-3.4-7.5-7.5-7.5zm240-168c-4.1 0-7.5 3.4-7.5 7.5s3.4 7.5 7.5 7.5 7.5-3.4 7.5-7.5-3.4-7.5-7.5-7.5zm48 15c4.1 0 7.5-3.4 7.5-7.5s-3.4-7.5-7.5-7.5-7.5 3.4-7.5 7.5 3.4 7.5 7.5 7.5zm5.5 35h-12v12h-12v12h12v12h12v-12h12v-12h-12v-12zm-60 0v12h-12v12h12v12h12v-12h12v-12h-12v-12h-12zm36-12h12v-12h-12v-12h-12v12h-12v12h12v12h12v-12zm-29.5 130c-4.1 0-7.5 3.4-7.5 7.5s3.4 7.5 7.5 7.5 7.5-3.4 7.5-7.5-3.4-7.5-7.5-7.5zm48 0c-4.1 0-7.5 3.4-7.5 7.5s3.4 7.5 7.5 7.5 7.5-3.4 7.5-7.5-3.4-7.5-7.5-7.5zM388 298v-12h12v-12h-12v-12h-12v12h-12v12h12v12h12zm48-36h-12v12h-12v12h12v12h12v-12h12v-12h-12v-12zm-12 60v-12h-12v-12h-12v12h-12v12h12v12h12v-12h12zm-17.5-74c-4.1 0-7.5 3.5-7.5 7.7v.6c0 4.3 3.4 7.7 7.5 7.7s7.5-3.5 7.5-7.7v-.3-.3c0-4.2-3.4-7.7-7.5-7.7zm-96 15c4.1 0 7.5-3.4 7.5-7.5s-3.4-7.5-7.5-7.5-7.5 3.4-7.5 7.5 3.4 7.5 7.5 7.5zm48 0c4.1 0 7.5-3.4 7.5-7.5s-3.4-7.5-7.5-7.5-7.5 3.4-7.5 7.5 3.4 7.5 7.5 7.5zM316 214v-12h12v-12h-12v-12h-12v12h-12v12h12v12h12zm48 0v-12h12v-12h-12v-12h-12v12h-12v12h12v12h12zm-24 36v-12h12v-12h-12v-12h-12v12h-12v12h12v12h12zm-5.5-86c-4.1 0-7.5 3.5-7.5 7.7v.6c0 4.3 3.4 7.7 7.5 7.7s7.5-3.5 7.5-7.7v-.3-.3c0-4.2-3.4-7.7-7.5-7.7zM376 322v-12h-12v-12h-12v12h-12v12h12v12h12v-12h12zm-48 0v-12h-12v-12h-12v12h-12v12h12v12h12v-12h12zm12-24v-12h12v-12h-12v-12h-12v12h-12v12h12v12h12zm-5.5 34c-4.1 0-7.5 3.4-7.5 7.5s3.4 7.5 7.5 7.5 7.5-3.4 7.5-7.5-3.4-7.5-7.5-7.5zm146-152c4.1 0 7.5-3.5 7.5-7.7v-.3-.3c0-4.3-3.4-7.7-7.5-7.7s-7.5 3.5-7.5 7.7v.6c0 4.2 3.4 7.7 7.5 7.7zm48-16c-4.1 0-7.5 3.4-7.5 7.5s3.4 7.5 7.5 7.5 7.5-3.4 7.5-7.5-3.4-7.5-7.5-7.5zm48 0c-4.1 0-7.5 3.4-7.5 7.5s3.4 7.5 7.5 7.5 7.5-3.4 7.5-7.5-3.4-7.5-7.5-7.5zm5.5 86v-12h12v-12h-12v-12h-12v12h-12v12h12v12h12zm-48 0v-12h12v-12h-12v-12h-12v12h-12v12h12v12h12zm24-36v-12h12v-12h-12v-12h-12v12h-12v12h12v12h12zm-5.5 50c4.1 0 7.5-3.5 7.5-7.7v-.3-.3c0-4.3-3.4-7.7-7.5-7.7s-7.5 3.5-7.5 7.7v.6c0 4.2 3.4 7.7 7.5 7.7zm-24 68c-4.1 0-7.5 3.4-7.5 7.5s3.4 7.5 7.5 7.5 7.5-3.4 7.5-7.5-3.4-7.5-7.5-7.5zm48 0c-4.1 0-7.5 3.4-7.5 7.5s3.4 7.5 7.5 7.5 7.5-3.4 7.5-7.5-3.4-7.5-7.5-7.5zM534 298v-12h12v-12h-12v-12h-12v12h-12v12h12v12h12zm48 0v-12h12v-12h-12v-12h-12v12h-12v12h12v12h12zm-12 24v-12h-12v-12h-12v12h-12v12h12v12h12v-12h12zm30.5-59c4.1 0 7.5-3.4 7.5-7.5s-3.4-7.5-7.5-7.5-7.5 3.4-7.5 7.5 3.4 7.5 7.5 7.5zm5.5-49v-12h12v-12h-12v-12h-12v12h-12v12h12v12h12zm24 36v-12h12v-12h-12v-12h-12v12h-12v12h12v12h12zm-5.5-86c-4.1 0-7.5 3.5-7.5 7.7v.6c0 4.3 3.4 7.7 7.5 7.7s7.5-3.5 7.5-7.7v-.3-.3c0-4.2-3.4-7.7-7.5-7.7zM618 322v-12h-12v-12h-12v12h-12v12h12v12h12v-12h12zm12-24v-12h12v-12h-12v-12h-12v12h-12v12h12v12h12zm-5.5 34c-4.1 0-7.5 3.4-7.5 7.5s3.4 7.5 7.5 7.5 7.5-3.4 7.5-7.5-3.4-7.5-7.5-7.5zm-168-84c-4.1 0-7.5 3.4-7.5 7.5s3.4 7.5 7.5 7.5 7.5-3.4 7.5-7.5-3.4-7.5-7.5-7.5zm48 15c4.1 0 7.5-3.4 7.5-7.5s-3.4-7.5-7.5-7.5-7.5 3.4-7.5 7.5 3.4 7.5 7.5 7.5zM450 214h12v-12h12v-12h-12v-12h-12v12h-12v12h12v12zm60 0v-12h12v-12h-12v-12h-12v12h-12v12h12v12h12zm-36 12h-12v12h12v12h12v-12h12v-12h-12v-12h-12v12zm48 96v-12h-12v-12h-12v12h-12v12h12v12h12v-12h12zm-48 0v-12h-12v-12h-12v12h-12v12h12v12h12v-12h12zm12-24v-12h12v-12h-12v-12h-12v12h-12v12h12v12h12zm-5.5 34c-4.1 0-7.5 3.4-7.5 7.5s3.4 7.5 7.5 7.5 7.5-3.4 7.5-7.5-3.4-7.5-7.5-7.5zm240-168c-4.1 0-7.5 3.4-7.5 7.5s3.4 7.5 7.5 7.5 7.5-3.4 7.5-7.5-3.4-7.5-7.5-7.5zm48 15c4.1 0 7.5-3.4 7.5-7.5s-3.4-7.5-7.5-7.5-7.5 3.4-7.5 7.5 3.4 7.5 7.5 7.5zm5.5 35h-12v12h-12v12h12v12h12v-12h12v-12h-12v-12zm-60 0v12h-12v12h12v12h12v-12h12v-12h-12v-12h-12zm36-12h12v-12h-12v-12h-12v12h-12v12h12v12h12v-12zm-29.5 130c-4.1 0-7.5 3.4-7.5 7.5s3.4 7.5 7.5 7.5 7.5-3.4 7.5-7.5-3.4-7.5-7.5-7.5zm48 0c-4.1 0-7.5 3.4-7.5 7.5s3.4 7.5 7.5 7.5 7.5-3.4 7.5-7.5-3.4-7.5-7.5-7.5zM726 298v-12h12v-12h-12v-12h-12v12h-12v12h12v12h12zm48-36h-12v12h-12v12h12v12h12v-12h12v-12h-12v-12zm-12 60v-12h-12v-12h-12v12h-12v12h12v12h12v-12h12zm-17.5-74c-4.1 0-7.5 3.5-7.5 7.7v.6c0 4.3 3.4 7.7 7.5 7.7s7.5-3.5 7.5-7.7v-.3-.3c0-4.2-3.4-7.7-7.5-7.7zm-96 15c4.1 0 7.5-3.4 7.5-7.5s-3.4-7.5-7.5-7.5-7.5 3.4-7.5 7.5 3.4 7.5 7.5 7.5zm48 0c4.1 0 7.5-3.4 7.5-7.5s-3.4-7.5-7.5-7.5-7.5 3.4-7.5 7.5 3.4 7.5 7.5 7.5zM654 214v-12h12v-12h-12v-12h-12v12h-12v12h12v12h12zm48 0v-12h12v-12h-12v-12h-12v12h-12v12h12v12h12zm-24 36v-12h12v-12h-12v-12h-12v12h-12v12h12v12h12zm-5.5-86c-4.1 0-7.5 3.5-7.5 7.7v.6c0 4.3 3.4 7.7 7.5 7.7s7.5-3.5 7.5-7.7v-.3-.3c0-4.2-3.4-7.7-7.5-7.7zM714 322v-12h-12v-12h-12v12h-12v12h12v12h12v-12h12zm-48 0v-12h-12v-12h-12v12h-12v12h12v12h12v-12h12zm12-24v-12h12v-12h-12v-12h-12v12h-12v12h12v12h12zm-5.5 34c-4.1 0-7.5 3.4-7.5 7.5s3.4 7.5 7.5 7.5 7.5-3.4 7.5-7.5-3.4-7.5-7.5-7.5z"/></g></g></g></g></g></svg>