<svg width="542" height="310" viewBox="0 0 542 310" xmlns="http://www.w3.org/2000/svg"><title>plansMarquee</title><g fill="none" fill-rule="evenodd"><g fill="#EEC562"><path d="M90.5-4a7.5 7.5 0 1 0 0 15 7.5 7.5 0 0 0 0-15M138.5-4a7.5 7.5 0 1 0 0 15 7.5 7.5 0 0 0 0-15M96 82V70h12V58H96V46H84v12H72v12h12v12h12zM120 46V34h12V22h-12V10h-12v12H96v12h12v12h12zM96 130v-12h12v-12H96V94H84v12H72v12h12v12h12zM18.5 80a7.5 7.5 0 1 0 0 15 7.5 7.5 0 0 0 0-15M12 46h12V34h12V22H24V10H12v12H0v12h12v12zM48 130v-12h12v-12H48V94H36v12H24v12h12v12h12zM380.5 12c4.142 0 7.5-3.466 7.5-7.742 0-.09-.022-.17-.026-.258.004-.087.026-.17.026-.258C388-.534 384.642-4 380.5-4c-4.142 0-7.5 3.466-7.5 7.742 0 .09.022.17.026.258-.004.087-.026.17-.026.258 0 4.276 3.358 7.742 7.5 7.742M428.5-4a7.5 7.5 0 1 0 0 15 7.5 7.5 0 0 0 0-15M476.5-4a7.5 7.5 0 1 0 0 15 7.5 7.5 0 0 0 0-15M482 82V70h12V58h-12V46h-12v12h-12v12h12v12h12zM434 82V70h12V58h-12V46h-12v12h-12v12h12v12h12zM458 46V34h12V22h-12V10h-12v12h-12v12h12v12h12zM452.5 96c4.142 0 7.5-3.466 7.5-7.742 0-.09-.022-.17-.026-.258.004-.087.026-.17.026-.258 0-4.276-3.358-7.742-7.5-7.742-4.142 0-7.5 3.466-7.5 7.742 0 .09.022.17.026.258-.004.087-.026.17-.026.258 0 4.276 3.358 7.742 7.5 7.742M476.5 164a7.5 7.5 0 1 0 0 15 7.5 7.5 0 0 0 0-15M482 130v-12h12v-12h-12V94h-12v12h-12v12h12v12h12zM470 154v-12h-12v-12h-12v12h-12v12h12v12h12v-12h12zM500.5 95a7.5 7.5 0 1 0 0-15 7.5 7.5 0 0 0 0 15M506 46V34h12V22h-12V10h-12v12h-12v12h12v12h12zM518 154v-12h-12v-12h-12v12h-12v12h12v12h12v-12h12zM530 130v-12h12v-12h-12V94h-12v12h-12v12h12v12h12zM524.5 164a7.5 7.5 0 1 0 0 15 7.5 7.5 0 0 0 0-15M410 46V34h12V22h-12V10h-12v12h-12v12h12v12h12zM144 298v-12h12v-12h-12v-12h-12v12h-12v12h12v12h12zM96 298v-12h12v-12H96v-12H84v12H72v12h12v12h12z"/><path d="M476.5 164a7.5 7.5 0 1 0 0 15 7.5 7.5 0 0 0 0-15M524.5 164a7.5 7.5 0 1 0 0 15 7.5 7.5 0 0 0 0-15M482 250v-12h12v-12h-12v-12h-12v12h-12v12h12v12h12zM506 214v-12h12v-12h-12v-12h-12v12h-12v12h12v12h12zM500.5 264c4.142 0 7.5-3.466 7.5-7.742 0-.09-.022-.17-.026-.258.004-.087.026-.17.026-.258 0-4.276-3.358-7.742-7.5-7.742-4.142 0-7.5 3.466-7.5 7.742 0 .09.022.17.026.258-.004.087-.026.17-.026.258 0 4.276 3.358 7.742 7.5 7.742M482 298v-12h12v-12h-12v-12h-12v12h-12v12h12v12h12zM452.5 263a7.5 7.5 0 1 0 0-15 7.5 7.5 0 0 0 0 15M458 214v-12h12v-12h-12v-12h-12v12h-12v12h12v12h12zM422 226h-12v12h12v12h12v-12h12v-12h-12v-12h-12v12zM470 322v-12h-12v-12h-12v12h-12v12h12v12h12v-12h12zM422 322v-12h-12v-12h-12v12h-12v12h12v12h12v-12h12zM434 298v-12h12v-12h-12v-12h-12v12h-12v12h12v12h12z"/></g><circle fill="#FFF" cx="265" cy="155" r="189"/><path d="M289.25 229.48c28.265-9.068 48.284-34.27 50.723-63.852 2.44-29.584-13.184-57.723-39.582-71.297-26.397-13.573-58.373-9.908-81.016 9.287-22.643 19.194-31.493 50.14-22.424 78.403a73.38 73.38 0 0 0 92.3 47.46zm-39.18-122.15c21.147-6.788 44.3-.166 58.66 16.777s17.098 40.87 6.935 60.618c-10.164 19.748-31.224 31.427-53.358 29.59-22.134-1.838-40.98-16.83-47.747-37.985-9.238-28.86 6.657-59.744 35.51-69z" fill="#FFF"/><path d="M278.63 196.39c20.313-6.517 31.498-28.265 24.984-48.578-6.513-20.314-28.26-31.503-48.574-24.992-20.315 6.51-31.507 28.254-25 48.57a38.62 38.62 0 0 0 48.59 25zm-17.8-55.49c10.335-3.31 21.396 2.385 24.706 12.72 3.31 10.335-2.384 21.396-12.718 24.707-10.335 3.31-21.397-2.383-24.708-12.717a19.64 19.64 0 0 1 12.72-24.72v.01z" fill="#FFF"/><path d="M272.84 178.31c10.33-3.318 16.018-14.382 12.702-24.714-3.316-10.332-14.38-16.02-24.712-12.706-10.333 3.315-16.023 14.377-12.71 24.71a19.64 19.64 0 0 0 24.72 12.71z" fill="#FFCB66"/><path d="M283.6 211.88c21.154-6.767 36.147-25.613 37.985-47.747 1.837-22.134-9.842-43.194-29.59-53.358-19.748-10.163-43.675-7.426-60.618 6.934-16.943 14.36-23.565 37.513-16.777 58.66 9.256 28.853 40.14 44.748 69 35.51zm-28.56-89.05c20.317-6.51 42.064 4.684 48.574 25 6.51 20.316-4.682 42.064-24.998 48.575-20.316 6.51-42.064-4.68-48.576-24.995a38.62 38.62 0 0 1 25-48.59v.01z" fill="#FFCB66"/><path d="M294.57 246.07c47.755-15.32 74.05-66.454 58.73-114.21-15.32-47.755-66.454-74.05-114.21-58.73s-74.05 66.454-58.73 114.21a90.79 90.79 0 0 0 114.21 58.73zM244.42 89.72c38.595-12.378 79.918 8.875 92.296 47.47 12.38 38.595-8.873 79.918-47.468 92.297-38.595 12.38-79.918-8.872-92.298-47.467a73.39 73.39 0 0 1 47.47-92.3z" fill="#FFCB66"/><path d="M340.29 65.49l-34.9 44c-.22.33-.605.51-1 .47a.61.61 0 0 1-.46-.77l3.53-26.08a32.14 32.14 0 0 1 12.6-20 15.81 15.81 0 0 1 12.52-3.24c4.05.63 7.71 5.62 7.71 5.62z" fill="#FFCB66"/><path d="M343.72 68.23l-34.9 43.94a1.13 1.13 0 0 0-.21 1.11.62.62 0 0 0 .84.27l24.61-9.34a32.19 32.19 0 0 0 16.66-16.82 15.81 15.81 0 0 0 .32-12.94c-1.62-3.79-7.32-6.22-7.32-6.22z" fill="#FEBC4E"/><path d="M265.31 159.71l-.62 5.08 4.62-1.9 76.38-96.28-4.01-3.17-76.37 96.27z" fill="#FEBC4E"/><path d="M266.62 163.26l76.71-97.47 1.16.59-75.72 95.95-2.15.93z" fill="#FEBC4E"/><path d="M310.47 58.45l-21.83 47.35a.88.88 0 0 1-.79.6.65.65 0 0 1-.58-.68L284.85 80a29.66 29.66 0 0 1 7-21.12 12.83 12.83 0 0 1 10.52-4.87c3.76.13 8.1 4.44 8.1 4.44z" fill="#FFCB66"/><path d="M314.14 60.63l-21.83 47.33a1.17 1.17 0 0 0 0 1.11.56.56 0 0 0 .81.14l20-12.44a28.15 28.15 0 0 0 11.3-18.59 17 17 0 0 0-2.48-12.56c-2.22-3.43-7.8-4.99-7.8-4.99z" fill="#FEBC4E"/><path d="M263.51 159.97l.53 5 3.73-2.47 47.77-103.71-4.27-2.52-47.76 103.7z" fill="#FEBC4E"/><path d="M265.44 163.23l47.81-104.91 1.17.41-47.26 103.29-1.72 1.21z" fill="#FEBC4E"/><path d="M362.32 104.58l-44.89 25.93a.86.86 0 0 1-1 0 .65.65 0 0 1-.08-.89l12.86-22.36a29.49 29.49 0 0 1 17.81-13.16 12.62 12.62 0 0 1 11.29 2.12c3 2.33 4.01 8.36 4.01 8.36z" fill="#FFCB66"/><path d="M364.03 108.48l-44.88 25.91a1.18 1.18 0 0 0-.6.93.56.56 0 0 0 .57.59l23.32 1.46a27.86 27.86 0 0 0 19.82-8.6 17.08 17.08 0 0 0 5.24-11.67c.16-4.1-3.47-8.62-3.47-8.62z" fill="#FEBC4E"/><path d="M265.97 160.1l-2.46 4.39 4.44.14 98.27-56.83-2-4.53-98.25 56.83z" fill="#FEBC4E"/><path d="M265.65 163.88l99-57.79.7 1.01-97.62 56.79-2.08-.01z" fill="#FEBC4E"/></g></svg>