<svg width="542" height="310" viewBox="0 0 542 310" xmlns="http://www.w3.org/2000/svg"><title>conditionsMarquee</title><g fill="none" fill-rule="evenodd"><g fill="#EEC562"><path d="M90.5-4a7.5 7.5 0 1 0 0 15 7.5 7.5 0 0 0 0-15M138.5-4a7.5 7.5 0 1 0 0 15 7.5 7.5 0 0 0 0-15M96 82V70h12V58H96V46H84v12H72v12h12v12h12zM120 46V34h12V22h-12V10h-12v12H96v12h12v12h12zM96 130v-12h12v-12H96V94H84v12H72v12h12v12h12zM18.5 80a7.5 7.5 0 1 0 0 15 7.5 7.5 0 0 0 0-15M12 46h12V34h12V22H24V10H12v12H0v12h12v12zM48 130v-12h12v-12H48V94H36v12H24v12h12v12h12zM380.5 12c4.142 0 7.5-3.466 7.5-7.742 0-.09-.022-.17-.026-.258.004-.087.026-.17.026-.258C388-.534 384.642-4 380.5-4c-4.142 0-7.5 3.466-7.5 7.742 0 .09.022.17.026.258-.004.087-.026.17-.026.258 0 4.276 3.358 7.742 7.5 7.742M428.5-4a7.5 7.5 0 1 0 0 15 7.5 7.5 0 0 0 0-15M476.5-4a7.5 7.5 0 1 0 0 15 7.5 7.5 0 0 0 0-15M482 82V70h12V58h-12V46h-12v12h-12v12h12v12h12zM434 82V70h12V58h-12V46h-12v12h-12v12h12v12h12zM458 46V34h12V22h-12V10h-12v12h-12v12h12v12h12zM452.5 96c4.142 0 7.5-3.466 7.5-7.742 0-.09-.022-.17-.026-.258.004-.087.026-.17.026-.258 0-4.276-3.358-7.742-7.5-7.742-4.142 0-7.5 3.466-7.5 7.742 0 .09.022.17.026.258-.004.087-.026.17-.026.258 0 4.276 3.358 7.742 7.5 7.742M476.5 164a7.5 7.5 0 1 0 0 15 7.5 7.5 0 0 0 0-15M482 130v-12h12v-12h-12V94h-12v12h-12v12h12v12h12zM470 154v-12h-12v-12h-12v12h-12v12h12v12h12v-12h12zM500.5 95a7.5 7.5 0 1 0 0-15 7.5 7.5 0 0 0 0 15M506 46V34h12V22h-12V10h-12v12h-12v12h12v12h12zM518 154v-12h-12v-12h-12v12h-12v12h12v12h12v-12h12zM530 130v-12h12v-12h-12V94h-12v12h-12v12h12v12h12zM524.5 164a7.5 7.5 0 1 0 0 15 7.5 7.5 0 0 0 0-15M410 46V34h12V22h-12V10h-12v12h-12v12h12v12h12zM144 298v-12h12v-12h-12v-12h-12v12h-12v12h12v12h12zM96 298v-12h12v-12H96v-12H84v12H72v12h12v12h12z"/><path d="M476.5 164a7.5 7.5 0 1 0 0 15 7.5 7.5 0 0 0 0-15M524.5 164a7.5 7.5 0 1 0 0 15 7.5 7.5 0 0 0 0-15M482 250v-12h12v-12h-12v-12h-12v12h-12v12h12v12h12zM506 214v-12h12v-12h-12v-12h-12v12h-12v12h12v12h12zM500.5 264c4.142 0 7.5-3.466 7.5-7.742 0-.09-.022-.17-.026-.258.004-.087.026-.17.026-.258 0-4.276-3.358-7.742-7.5-7.742-4.142 0-7.5 3.466-7.5 7.742 0 .09.022.17.026.258-.004.087-.026.17-.026.258 0 4.276 3.358 7.742 7.5 7.742M482 298v-12h12v-12h-12v-12h-12v12h-12v12h12v12h12zM452.5 263a7.5 7.5 0 1 0 0-15 7.5 7.5 0 0 0 0 15M458 214v-12h12v-12h-12v-12h-12v12h-12v12h12v12h12zM422 226h-12v12h12v12h12v-12h12v-12h-12v-12h-12v12zM470 322v-12h-12v-12h-12v12h-12v12h12v12h12v-12h12zM422 322v-12h-12v-12h-12v12h-12v12h12v12h12v-12h12zM434 298v-12h12v-12h-12v-12h-12v12h-12v12h12v12h12z"/></g><circle fill="#FFF" cx="265" cy="155" r="189"/><path d="M335.01 232.802H197.7c-7.63 0-13.817-7.332-13.817-16.376v-93.693c0-9.045 6.187-16.377 13.818-16.377h137.31c7.633 0 13.82 7.332 13.82 16.377v93.693c0 9.044-6.187 16.376-13.82 16.376z" stroke="#EEEDE5" stroke-width="5" stroke-dasharray="14.104,9.067"/><path d="M226.016 102.91c-2.416.54-8.057-.28-20.617-13.978-12.562-13.696-18.566-6.983-18.566-6.983-26.728 20.397-37.74 12.416-37.74 12.416s26.892 31.69 76.383 15.704M226.274 102.91c2.416.54 8.057-.28 20.618-13.978 12.56-13.696 18.565-6.983 18.565-6.983 26.727 20.397 37.74 12.416 37.74 12.416s-26.892 31.69-76.383 15.704M226.274 86.28c-9.262 0-16.77-7.514-16.77-16.783 0-9.27 7.508-16.783 16.77-16.783s16.77 7.514 16.77 16.783c-.012 9.264-7.513 16.77-16.77 16.783zm0-26.583c-5.402 0-9.78 4.382-9.78 9.788 0 5.406 4.378 9.788 9.78 9.788 5.402 0 9.78-4.382 9.78-9.788-.012-5.4-4.385-9.77-9.78-9.776v-.013zM226.274 220.065a3.52 3.52 0 0 1-3.518-3.52v-14.742a3.52 3.52 0 0 1 3.518-3.52 3.52 3.52 0 0 1 3.518 3.52v14.776a3.52 3.52 0 0 1-3.518 3.485z" fill="#FFCB66"/><path d="M226.274 141.066a3.52 3.52 0 0 1-3.518-3.52V82.782a3.52 3.52 0 0 1 3.518-3.52 3.52 3.52 0 0 1 3.518 3.52v54.774a3.52 3.52 0 0 1-3.518 3.51zM249.472 217.365a3.523 3.523 0 0 1-3.06-5.176c.45-.808.942-1.59 1.476-2.347a5.6 5.6 0 0 0 1.29-2.523c.282-3.98.13-6.163-6.52-8.557-2.98-1.068-6.122-2.054-9.16-3.016a129.32 129.32 0 0 1-18.084-6.702c-8.14-3.98-12.654-10.246-12.068-16.76.622-6.866 6.52-12.358 16.208-15.093a179.47 179.47 0 0 1 17.897-3.767c3.613-.634 7.366-1.29 11.013-2.066l1.173-.247c7.19-1.514 17.017-3.592 21.286-6.96.973-.775 5.758-4.883 3.154-8.78-2.814-4.177-15.246-4.177-20.63-4.177a3.52 3.52 0 0 1-3.517-3.52 3.52 3.52 0 0 1 3.517-3.522c10.415 0 21.908.563 26.435 7.265 3.788 5.667 1.923 12.91-4.61 18.155-5.558 4.4-15.88 6.573-24.182 8.32l-1.173.248c-3.776.81-7.588 1.467-11.258 2.112a171.5 171.5 0 0 0-17.218 3.686c-6.65 1.878-10.813 5.235-11.14 8.99-.318 3.522 2.743 7.195 8.208 9.848a124.01 124.01 0 0 0 17.123 6.314c3.108.974 6.32 1.983 9.382 3.11 9.922 3.52 11.622 8.838 11.13 15.645a11.74 11.74 0 0 1-2.51 6.01c-.394.542-.76 1.106-1.09 1.69a3.518 3.518 0 0 1-3.073 1.818z" fill="#FFCB66"/><path d="M204.39 217.365a3.518 3.518 0 0 1-3.073-1.83 18.11 18.11 0 0 0-1.078-1.702 11.66 11.66 0 0 1-2.488-5.986c-.504-6.807 1.173-12.065 11.13-15.645.91-.35 1.842-.636 2.79-.857.388-.082.834-.187 1.913-.528a3.522 3.522 0 0 1 2.1 6.666c-1.396.436-1.97.577-2.463.682a14.3 14.3 0 0 0-1.98.61c-6.662 2.348-6.815 4.578-6.52 8.557.198.94.64 1.808 1.277 2.524.535.755 1.028 1.538 1.478 2.347a3.523 3.523 0 0 1-3.085 5.165zM242.552 189.42a3.522 3.522 0 0 1-1.536-6.643c4.96-2.43 8.033-5.868 8.21-9.072.128-2.57-1.572-5.082-4.81-7.042a3.523 3.523 0 0 1-.82-4.625 3.517 3.517 0 0 1 4.503-1.325c5.406 3.357 8.36 8.216 8.103 13.38-.305 5.927-4.69 11.396-12.114 15.01a3.516 3.516 0 0 1-1.538.318zM210.49 159.61a3.422 3.422 0 0 1-.61 0c-1.854-.33-2.593-.517-3.52-.763a81.88 81.88 0 0 0-2.345-.575l-1.243-.27c-8.268-1.75-18.565-3.92-24.077-8.31-6.556-5.2-8.433-12.487-4.69-18.144 4.537-6.714 16.02-7.277 26.433-7.277a3.52 3.52 0 0 1 3.518 3.522 3.52 3.52 0 0 1-3.518 3.52c-5.324 0-17.803 0-20.64 4.19-2.593 3.886 2.192 7.982 3.177 8.768 4.234 3.357 14.074 5.422 21.18 6.948l1.267.27c1.302.282 2.04.47 2.686.646.645.176 1.42.363 2.98.645a3.52 3.52 0 0 1-.6 6.83zM274.592 211.955l12.573 21.96 23.408-13.58V247h25.8v-26.665l23.386 13.58 12.607-21.96-23.55-13.58 23.503-13.59-12.55-21.96-23.396 13.592v-26.83h-25.8v26.83l-23.41-13.59-12.618 21.958 23.537 13.59-23.49 13.58z" fill="#FFCB66"/><path d="M336.374 176.58v-26.993h-25.8v26.83l-23.41-13.59-12.618 21.958 23.537 13.59-23.48 13.58 12.515 21.96 23.42-13.498" fill="#FEBC4E"/><g fill="#FEBC4E"><path d="M246.833 88.393c-8.49 9.26-13.663 12.628-17.18 13.684v-16.7c7.89-1.43 13.554-8.41 13.333-16.432 0-9.28-7.516-16.8-16.788-16.8s-16.788 7.52-16.788 16.8a17.32 17.32 0 0 0 13.205 16.43v16.785c-3.518-.95-8.585-4.26-17.298-13.767C192.745 74.696 186.8 81.41 186.8 81.41 160.07 101.806 149 93.826 149 93.826s25.53 30.526 73.615 16.536v26.666a3.52 3.52 0 0 0 3.518 3.52 3.52 3.52 0 0 0 3.52-3.52v-26.596c48.082 13.814 73.473-16.607 73.473-16.607s-10.954 7.98-37.68-12.418c-3.09-2.37-6.053-6.714-18.613 6.983zm-30.34-19.436c0-5.406 4.38-9.788 9.78-9.788 5.403 0 9.782 4.38 9.782 9.787 0 5.406-4.38 9.788-9.78 9.788-5.4-.006-9.775-4.385-9.782-9.788zM226.133 197.707a3.52 3.52 0 0 0-3.518 3.52v14.777a3.52 3.52 0 0 0 3.518 3.52 3.52 3.52 0 0 0 3.52-3.52v-14.776a3.52 3.52 0 0 0-3.52-3.52z"/><path d="M253.447 123.684a3.52 3.52 0 0 0-3.518 3.52 3.52 3.52 0 0 0 3.517 3.522c5.336 0 17.815 0 20.63 4.178 2.603 3.897-2.17 8.005-3.155 8.78-4.257 3.368-14.074 5.445-21.286 6.96l-1.173.246c-3.66.774-7.4 1.43-11.012 2.065a179.492 179.492 0 0 0-17.92 3.674c-9.675 2.733-15.585 8.214-16.207 15.092-.586 6.514 3.93 12.78 12.068 16.76a129.307 129.307 0 0 0 18.085 6.7c3.037.952 6.18 1.95 9.16 3.018 6.65 2.347 6.813 4.577 6.52 8.555a5.6 5.6 0 0 1-1.29 2.524 26.035 26.035 0 0 0-1.478 2.346 3.522 3.522 0 0 0 1.57 4.416c1.57.858 3.533.403 4.564-1.06.333-.582.697-1.146 1.092-1.69a11.74 11.74 0 0 0 2.51-6.008c.492-6.808-1.174-12.077-11.13-15.645-3.108-1.175-6.322-2.126-9.383-3.11a124.01 124.01 0 0 1-17.123-6.316c-5.43-2.652-8.49-6.337-8.21-9.847.34-3.755 4.504-7.112 11.142-8.99a171.488 171.488 0 0 1 17.203-3.603c3.683-.645 7.483-1.314 11.26-2.112l1.172-.247c8.303-1.75 18.624-3.932 24.182-8.32 6.545-5.2 8.398-12.49 4.61-18.158-4.457-6.69-15.985-7.253-26.4-7.253zM213.585 190.277c-1.08.34-1.525.446-1.912.53-.95.22-1.882.505-2.79.855-9.935 3.52-11.635 8.838-11.13 15.645a11.66 11.66 0 0 0 2.486 5.986c.39.546.75 1.115 1.077 1.7a3.517 3.517 0 0 0 4.566 1.102 3.522 3.522 0 0 0 1.592-4.422 25.47 25.47 0 0 0-1.478-2.347 5.518 5.518 0 0 1-1.278-2.524c-.295-3.978-.142-6.16 6.52-8.556.644-.25 1.307-.455 1.98-.61.494-.117 1.08-.246 2.464-.68a3.522 3.522 0 0 0-2.1-6.68z"/><path d="M248.135 160.15a3.516 3.516 0 0 0-5.69 2.792 3.52 3.52 0 0 0 2.007 3.158c3.225 1.995 4.938 4.52 4.81 7.042-.166 3.263-3.227 6.655-8.21 9.072a3.52 3.52 0 1 0 3.06 6.28c7.4-3.615 11.81-9.085 12.115-15.012.27-5.117-2.686-9.987-8.092-13.332zM203.956 157.685a29.9 29.9 0 0 1 2.346.575c.926.247 1.665.434 3.518.763.203.018.407.018.61 0a3.52 3.52 0 0 0 .598-6.936c-1.56-.27-2.193-.435-2.98-.646a47.833 47.833 0 0 0-2.684-.644l-1.267-.27c-7.154-1.514-16.947-3.592-21.18-6.948-.985-.787-5.782-4.883-3.18-8.767 2.828-4.19 15.306-4.19 20.642-4.19a3.52 3.52 0 0 0 3.518-3.52 3.52 3.52 0 0 0-3.52-3.52c-10.413 0-21.894.562-26.433 7.275-3.788 5.657-1.923 12.91 4.69 18.145 5.513 4.378 15.798 6.56 24.078 8.31l1.243.375z"/></g></g></svg>