<svg width="542" height="310" viewBox="0 0 542 310" xmlns="http://www.w3.org/2000/svg"><title>newsMarquee</title><g fill="none" fill-rule="evenodd"><g fill="#EEC562"><path d="M90.5-4a7.5 7.5 0 1 0 0 15 7.5 7.5 0 0 0 0-15M138.5-4a7.5 7.5 0 1 0 0 15 7.5 7.5 0 0 0 0-15M96 82V70h12V58H96V46H84v12H72v12h12v12h12zM120 46V34h12V22h-12V10h-12v12H96v12h12v12h12zM96 130v-12h12v-12H96V94H84v12H72v12h12v12h12zM18.5 80a7.5 7.5 0 1 0 0 15 7.5 7.5 0 0 0 0-15M12 46h12V34h12V22H24V10H12v12H0v12h12v12zM48 130v-12h12v-12H48V94H36v12H24v12h12v12h12zM380.5 12c4.142 0 7.5-3.466 7.5-7.742 0-.09-.022-.17-.026-.258.004-.087.026-.17.026-.258C388-.534 384.642-4 380.5-4c-4.142 0-7.5 3.466-7.5 7.742 0 .09.022.17.026.258-.004.087-.026.17-.026.258 0 4.276 3.358 7.742 7.5 7.742M428.5-4a7.5 7.5 0 1 0 0 15 7.5 7.5 0 0 0 0-15M476.5-4a7.5 7.5 0 1 0 0 15 7.5 7.5 0 0 0 0-15M482 82V70h12V58h-12V46h-12v12h-12v12h12v12h12zM434 82V70h12V58h-12V46h-12v12h-12v12h12v12h12zM458 46V34h12V22h-12V10h-12v12h-12v12h12v12h12zM452.5 96c4.142 0 7.5-3.466 7.5-7.742 0-.09-.022-.17-.026-.258.004-.087.026-.17.026-.258 0-4.276-3.358-7.742-7.5-7.742-4.142 0-7.5 3.466-7.5 7.742 0 .09.022.17.026.258-.004.087-.026.17-.026.258 0 4.276 3.358 7.742 7.5 7.742M476.5 164a7.5 7.5 0 1 0 0 15 7.5 7.5 0 0 0 0-15M482 130v-12h12v-12h-12V94h-12v12h-12v12h12v12h12zM470 154v-12h-12v-12h-12v12h-12v12h12v12h12v-12h12zM500.5 95a7.5 7.5 0 1 0 0-15 7.5 7.5 0 0 0 0 15M506 46V34h12V22h-12V10h-12v12h-12v12h12v12h12zM518 154v-12h-12v-12h-12v12h-12v12h12v12h12v-12h12zM530 130v-12h12v-12h-12V94h-12v12h-12v12h12v12h12zM524.5 164a7.5 7.5 0 1 0 0 15 7.5 7.5 0 0 0 0-15M410 46V34h12V22h-12V10h-12v12h-12v12h12v12h12zM144 298v-12h12v-12h-12v-12h-12v12h-12v12h12v12h12zM96 298v-12h12v-12H96v-12H84v12H72v12h12v12h12z"/><path d="M476.5 164a7.5 7.5 0 1 0 0 15 7.5 7.5 0 0 0 0-15M524.5 164a7.5 7.5 0 1 0 0 15 7.5 7.5 0 0 0 0-15M482 250v-12h12v-12h-12v-12h-12v12h-12v12h12v12h12zM506 214v-12h12v-12h-12v-12h-12v12h-12v12h12v12h12zM500.5 264c4.142 0 7.5-3.466 7.5-7.742 0-.09-.022-.17-.026-.258.004-.087.026-.17.026-.258 0-4.276-3.358-7.742-7.5-7.742-4.142 0-7.5 3.466-7.5 7.742 0 .09.022.17.026.258-.004.087-.026.17-.026.258 0 4.276 3.358 7.742 7.5 7.742M482 298v-12h12v-12h-12v-12h-12v12h-12v12h12v12h12zM452.5 263a7.5 7.5 0 1 0 0-15 7.5 7.5 0 0 0 0 15M458 214v-12h12v-12h-12v-12h-12v12h-12v12h12v12h12zM422 226h-12v12h12v12h12v-12h12v-12h-12v-12h-12v12zM470 322v-12h-12v-12h-12v12h-12v12h12v12h12v-12h12zM422 322v-12h-12v-12h-12v12h-12v12h12v12h12v-12h12zM434 298v-12h12v-12h-12v-12h-12v12h-12v12h12v12h12z"/></g><circle fill="#FFF" cx="265" cy="155" r="189"/><path d="M335.01 232.802H197.7c-7.63 0-13.817-7.332-13.817-16.376v-93.693c0-9.045 6.187-16.377 13.818-16.377h137.31c7.633 0 13.82 7.332 13.82 16.377v93.693c0 9.044-6.187 16.376-13.82 16.376z" stroke="#EEEDE5" stroke-width="5" stroke-dasharray="14.104,9.067"/><path d="M247.39 178.12c16.056 0 29.084 10.387 29.084 23.21 0 5.45-2.386 10.29-6.3 14.426a9.404 9.404 0 0 0-2.385 6.513c.008 2.69 1.08 5.268 2.98 7.17a14.924 14.924 0 0 1-10.604-7.326 35.066 35.066 0 0 1-12.8 2.39c-16.047 0-29.062-10.398-29.062-23.21 0-12.81 13.04-23.173 29.085-23.173z" fill="#FFCB66"/><path d="M208.712 178.802c-21.378 0-38.712 13.84-38.712 30.894 0 7.267 3.185 13.708 8.35 19.218a12.562 12.562 0 0 1 3.138 8.676 13.565 13.565 0 0 1-3.984 9.56 19.91 19.91 0 0 0 14.137-9.74 46.667 46.667 0 0 0 17.036 3.156c21.38 0 38.713-13.84 38.713-30.906s-17.3-30.858-38.678-30.858zM318.825 186.296l-15.51-5.318c-11.62-3.968-14.673-17.796-10.903-28.875l3.352-9.847 45.047 15.37-7.288 21.45a11.467 11.467 0 0 1-5.822 6.646 11.6 11.6 0 0 1-8.876.574zm-19.9-37.455l-1.68 4.937c-2.948 8.664-.884 19.373 7.68 22.29l15.51 5.317c.96.324 1.982.414 2.983.263a6.338 6.338 0 0 0 5.07-4.243l5.63-16.54-35.192-12.023zM250.514 79.368a2.79 2.79 0 0 0 2.124-.956 2.86 2.86 0 0 0-.227-4.027l-22.976-20.473a2.84 2.84 0 0 0-4.014.233 2.852 2.852 0 0 0 .233 4.022L248.63 78.64a2.825 2.825 0 0 0 1.884.728zM200.91 144.084h.418l30.146-4.505a2.853 2.853 0 0 0 2.235-1.777 2.86 2.86 0 0 0-.42-2.826 2.85 2.85 0 0 0-2.65-1.05l-30.147 4.504a2.856 2.856 0 0 0-2.282 3.012 2.854 2.854 0 0 0 2.7 2.642zM240.22 108.05a2.845 2.845 0 0 0 .92-5.545l-36.985-12.632a2.84 2.84 0 0 0-2.79.55 2.85 2.85 0 0 0 .953 4.84l36.982 12.633c.296.103.606.156.92.155z" fill="#FEBC4E"/><path d="M253.58 146.857l-5.2 15.43 14.398 4.9 2.744-8.056 85.394 3.91.49-1.435 10.736 7.362 5.368-15.764 5.5-16.17c-22.858 7.386-51.86 11.808-83.414 11.808a322.25 322.25 0 0 1-36.016-1.983z" fill="#FEBC4E"/><path d="M360.58 134.702l.87-2.58-70.064-49.156 3.388-9.98-14.638-4.947-16.356 48.485-10.224 30.32a322.25 322.25 0 0 0 36.017 1.984c31.554 0 60.555-4.423 83.413-11.81l.585-1.708-12.99-.61z" fill="#FFCB66"/></g></svg>