<svg width="542" height="310" viewBox="0 0 542 310" xmlns="http://www.w3.org/2000/svg" xmlns:xlink="http://www.w3.org/1999/xlink"><title>discountsMaquee</title><defs><path id="a" d="M0 .42h191.154v143.166H0"/><path id="c" d="M9.515.42h191.153v143.166H9.515V.42z"/><path id="e" d="M0 .248h85.462V55H0"/><path id="g" d="M0 .248h85.462V55H0V.248z"/></defs><g fill="none" fill-rule="evenodd"><g fill="#EEC562"><path d="M90.5-4a7.5 7.5 0 1 0 0 15 7.5 7.5 0 0 0 0-15M138.5-4a7.5 7.5 0 1 0 0 15 7.5 7.5 0 0 0 0-15M96 82V70h12V58H96V46H84v12H72v12h12v12h12zM120 46V34h12V22h-12V10h-12v12H96v12h12v12h12zM96 130v-12h12v-12H96V94H84v12H72v12h12v12h12zM18.5 80a7.5 7.5 0 1 0 0 15 7.5 7.5 0 0 0 0-15M12 46h12V34h12V22H24V10H12v12H0v12h12v12zM48 130v-12h12v-12H48V94H36v12H24v12h12v12h12zM380.5 12c4.142 0 7.5-3.466 7.5-7.742 0-.09-.022-.17-.026-.258.004-.087.026-.17.026-.258C388-.534 384.642-4 380.5-4c-4.142 0-7.5 3.466-7.5 7.742 0 .09.022.17.026.258-.004.087-.026.17-.026.258 0 4.276 3.358 7.742 7.5 7.742M428.5-4a7.5 7.5 0 1 0 0 15 7.5 7.5 0 0 0 0-15M476.5-4a7.5 7.5 0 1 0 0 15 7.5 7.5 0 0 0 0-15M482 82V70h12V58h-12V46h-12v12h-12v12h12v12h12zM434 82V70h12V58h-12V46h-12v12h-12v12h12v12h12zM458 46V34h12V22h-12V10h-12v12h-12v12h12v12h12zM452.5 96c4.142 0 7.5-3.466 7.5-7.742 0-.09-.022-.17-.026-.258.004-.087.026-.17.026-.258 0-4.276-3.358-7.742-7.5-7.742-4.142 0-7.5 3.466-7.5 7.742 0 .09.022.17.026.258-.004.087-.026.17-.026.258 0 4.276 3.358 7.742 7.5 7.742M476.5 164a7.5 7.5 0 1 0 0 15 7.5 7.5 0 0 0 0-15M482 130v-12h12v-12h-12V94h-12v12h-12v12h12v12h12zM470 154v-12h-12v-12h-12v12h-12v12h12v12h12v-12h12zM500.5 95a7.5 7.5 0 1 0 0-15 7.5 7.5 0 0 0 0 15M506 46V34h12V22h-12V10h-12v12h-12v12h12v12h12zM518 154v-12h-12v-12h-12v12h-12v12h12v12h12v-12h12zM530 130v-12h12v-12h-12V94h-12v12h-12v12h12v12h12zM524.5 164a7.5 7.5 0 1 0 0 15 7.5 7.5 0 0 0 0-15M410 46V34h12V22h-12V10h-12v12h-12v12h12v12h12zM144 298v-12h12v-12h-12v-12h-12v12h-12v12h12v12h12zM96 298v-12h12v-12H96v-12H84v12H72v12h12v12h12z"/><path d="M476.5 164a7.5 7.5 0 1 0 0 15 7.5 7.5 0 0 0 0-15M524.5 164a7.5 7.5 0 1 0 0 15 7.5 7.5 0 0 0 0-15M482 250v-12h12v-12h-12v-12h-12v12h-12v12h12v12h12zM506 214v-12h12v-12h-12v-12h-12v12h-12v12h12v12h12zM500.5 264c4.142 0 7.5-3.466 7.5-7.742 0-.09-.022-.17-.026-.258.004-.087.026-.17.026-.258 0-4.276-3.358-7.742-7.5-7.742-4.142 0-7.5 3.466-7.5 7.742 0 .09.022.17.026.258-.004.087-.026.17-.026.258 0 4.276 3.358 7.742 7.5 7.742M482 298v-12h12v-12h-12v-12h-12v12h-12v12h12v12h12zM452.5 263a7.5 7.5 0 1 0 0-15 7.5 7.5 0 0 0 0 15M458 214v-12h12v-12h-12v-12h-12v12h-12v12h12v12h12zM422 226h-12v12h12v12h12v-12h12v-12h-12v-12h-12v12zM470 322v-12h-12v-12h-12v12h-12v12h12v12h12v-12h12zM422 322v-12h-12v-12h-12v12h-12v12h12v12h12v-12h12zM434 298v-12h12v-12h-12v-12h-12v12h-12v12h12v12h12z"/></g><circle fill="#FFF" cx="265" cy="155" r="189"/><g transform="translate(183 77)"><path d="M152.01 155.802H14.7c-7.63 0-13.817-7.332-13.817-16.376V45.733c0-9.045 6.187-16.377 13.818-16.377h137.31c7.633 0 13.82 7.332 13.82 16.377v93.693c0 9.044-6.187 16.376-13.82 16.376z" stroke="#EEEDE5" stroke-width="5" stroke-dasharray="14.104,9.067"/><g transform="translate(9.515)"><mask id="b" fill="#fff"><use xlink:href="#a"/></mask><path d="M41.914.42v21.935h21.908C63.822 10.24 54.014.42 41.914.42" fill="#F6B86E" mask="url(#b)"/></g><path d="M200.668 62.11a4.11 4.11 0 0 1-4.107 4.113 4.11 4.11 0 0 1-4.107-4.113 4.11 4.11 0 0 1 4.108-4.113 4.11 4.11 0 0 1 4.108 4.113" fill="#F6B86E"/><mask id="d" fill="#fff"><use xlink:href="#c"/></mask><path d="M196.56 66.222h-8.215v-8.225h8.215v8.225z" fill="#F6B86E" mask="url(#d)"/><path d="M166.44 57.997h21.905v8.225H166.44v-8.225z" fill="#FFCA6E" mask="url(#d)"/><path d="M177.392 55.256c0 30.285-29.423 54.835-65.72 54.835-36.296 0-65.72-24.55-65.72-54.834C45.953 24.97 75.377.42 111.673.42c36.297 0 65.72 24.55 65.72 54.836" fill="#FFCA6E" mask="url(#d)"/><path d="M73.336 44.29a5.48 5.48 0 0 1-5.477 5.482 5.48 5.48 0 0 1-5.477-5.483 5.48 5.48 0 0 1 5.476-5.485 5.48 5.48 0 0 1 5.476 5.484M48.69 71.706H32.26v-32.9h16.43v32.9z" fill="#F8B968" mask="url(#d)"/><path d="M37.738 55.256c0 9.085-2.453 16.45-5.478 16.45-3.024 0-5.476-7.365-5.476-16.45 0-9.086 2.452-16.45 5.476-16.45 3.025 0 5.478 7.364 5.478 16.45" fill="#FFCA6E" mask="url(#d)"/><path d="M54.168 55.256c0 9.085-2.453 16.45-5.478 16.45-3.024 0-5.476-7.365-5.476-16.45 0-9.086 2.452-16.45 5.476-16.45 3.025 0 5.478 7.364 5.478 16.45" fill="#F8B968" mask="url(#d)"/><path d="M154.29 13.516c2.106 5.372 3.25 11.106 3.25 17.064 0 30.285-29.424 54.836-65.72 54.836-16.263 0-31.144-4.932-42.618-13.096 8.6 21.928 33.315 37.77 62.47 37.77 36.297 0 65.72-24.55 65.72-54.833 0-16.716-8.966-31.682-23.102-41.74" opacity=".2" fill="#EF8200" mask="url(#d)"/><path d="M155.486 96.382c0-3.028-7.357-5.483-16.43-5.483-1.42 0-2.794.06-4.107.17v32.73h20.536V96.382z" fill="#F8B968" mask="url(#d)"/><path d="M122.626 96.382V123.8h12.322V91.07c-7.086.61-12.322 2.758-12.322 5.312M67.86 96.382V123.8h12.32V91.07c-7.085.61-12.32 2.758-12.32 5.312" fill="#FFCA6E" mask="url(#d)"/><path d="M84.29 90.9c-1.42 0-2.795.06-4.108.172V123.8h20.537V96.383c0-3.03-7.357-5.484-16.43-5.484" fill="#F8B968" mask="url(#d)"/><path d="M180.13 57.997c0 4.544 3.678 8.226 8.215 8.226v-8.226h-8.214z" fill="#FFCA6E" mask="url(#d)"/><path d="M188.346 49.772c-4.538 0-8.215 3.683-8.215 8.225h8.216v-8.225z" fill="#F8B968" mask="url(#d)"/><path d="M188.346 49.772v8.225h8.214c0-4.542-3.677-8.225-8.214-8.225M188.346 66.223c4.537 0 8.214-3.682 8.214-8.225h-8.214v8.225z" fill="#FFCA6E" mask="url(#d)"/><path d="M78.813.42v21.935h21.906C100.72 10.24 90.91.42 78.812.42" fill="#FABA61" mask="url(#d)"/><path d="M136.757 16.323H108.78v-3.735h27.977v3.735z" opacity=".2" fill="#EF8200" mask="url(#d)"/></g><g transform="translate(146 165)"><mask id="f" fill="#fff"><use xlink:href="#e"/></mask><path d="M17.092 8.803c0 4.726-3.826 8.556-8.546 8.556C3.826 17.36 0 13.53 0 8.802 0 4.08 3.826.248 8.546.248c4.72 0 8.546 3.83 8.546 8.555" fill="#FABA61" mask="url(#f)"/><path d="M17.092 46.445c0 4.725-3.826 8.555-8.546 8.555C3.826 55 0 51.17 0 46.445c0-4.726 3.826-8.555 8.546-8.555 4.72 0 8.546 3.83 8.546 8.555" fill="#FABA61"/><path d="M80.334 13.936H0v27.376L13.674 55h66.66c.94 0 1.71-.77 1.71-1.71V15.647c0-.94-.77-1.712-1.71-1.712" fill="#FABA61"/><path d="M13.674 8.803a5.13 5.13 0 0 1-5.128 5.134A5.13 5.13 0 0 1 3.42 8.803 5.13 5.13 0 0 1 8.545 3.67a5.13 5.13 0 0 1 5.128 5.133" fill="#FFF"/><mask id="h" fill="#fff"><use xlink:href="#g"/></mask><path d="M68.37 3.67H8.546v10.266H68.37V3.67z" fill="#FFF" mask="url(#h)"/><path d="M68.37 3.67H8.546V.25H68.37V3.67zM3.42 8.803H0v5.134h3.42V8.803z" fill="#FABA61" mask="url(#h)"/><path d="M13.674 46.445H8.546V55h5.128v-8.555z" fill="#F8B968" mask="url(#h)"/><path d="M0 41.313h8.546v5.132H0v-5.133zM75.206 3.67a3.42 3.42 0 0 1-3.418 3.423A3.42 3.42 0 0 1 68.37 3.67 3.42 3.42 0 0 1 71.788.25a3.42 3.42 0 0 1 3.418 3.42" fill="#FABA61" mask="url(#h)"/><path d="M71.788 5.382a1.71 1.71 0 0 1-3.417 0 1.71 1.71 0 0 1 3.417 0" fill="#FFF" mask="url(#h)"/><path d="M68.37 13.937h3.417V5.382H68.37v8.555zM70.08 3.67h-1.71v1.712h1.71v-1.71z" fill="#FFF" mask="url(#h)"/><path d="M75.206 3.67h-3.418v10.266h3.418V3.67zM71.787.248H68.37V3.67h3.417V.25z" fill="#FABA61" mask="url(#h)"/><path d="M85.462 29.335c0-.94-.77-1.71-1.71-1.71H56.405c-.94 0-1.71.77-1.71 1.71v10.266c0 .942.77 1.712 1.71 1.712h27.347c.94 0 1.71-.77 1.71-1.71V29.335z" fill="#FFF" mask="url(#h)"/><path d="M64.95 34.468a3.42 3.42 0 0 1-6.836 0 3.42 3.42 0 0 1 3.42-3.422 3.42 3.42 0 0 1 3.417 3.422" fill="#FDC975" mask="url(#h)"/></g></g></svg>