<svg width="542" height="310" viewBox="0 0 542 310" xmlns="http://www.w3.org/2000/svg" xmlns:xlink="http://www.w3.org/1999/xlink"><title>classesMarquee2</title><defs><path id="a" d="M0 0h170.27v215H0V0z"/></defs><g fill="none" fill-rule="evenodd"><g fill="#EEC562"><path d="M90.5-4a7.5 7.5 0 1 0 0 15 7.5 7.5 0 0 0 0-15M138.5-4a7.5 7.5 0 1 0 0 15 7.5 7.5 0 0 0 0-15M96 82V70h12V58H96V46H84v12H72v12h12v12h12zM120 46V34h12V22h-12V10h-12v12H96v12h12v12h12zM96 130v-12h12v-12H96V94H84v12H72v12h12v12h12zM18.5 80a7.5 7.5 0 1 0 0 15 7.5 7.5 0 0 0 0-15M12 46h12V34h12V22H24V10H12v12H0v12h12v12zM48 130v-12h12v-12H48V94H36v12H24v12h12v12h12zM380.5 12c4.142 0 7.5-3.466 7.5-7.742 0-.09-.022-.17-.026-.258.004-.087.026-.17.026-.258C388-.534 384.642-4 380.5-4c-4.142 0-7.5 3.466-7.5 7.742 0 .09.022.17.026.258-.004.087-.026.17-.026.258 0 4.276 3.358 7.742 7.5 7.742M428.5-4a7.5 7.5 0 1 0 0 15 7.5 7.5 0 0 0 0-15M476.5-4a7.5 7.5 0 1 0 0 15 7.5 7.5 0 0 0 0-15M482 82V70h12V58h-12V46h-12v12h-12v12h12v12h12zM434 82V70h12V58h-12V46h-12v12h-12v12h12v12h12zM458 46V34h12V22h-12V10h-12v12h-12v12h12v12h12zM452.5 96c4.142 0 7.5-3.466 7.5-7.742 0-.09-.022-.17-.026-.258.004-.087.026-.17.026-.258 0-4.276-3.358-7.742-7.5-7.742-4.142 0-7.5 3.466-7.5 7.742 0 .09.022.17.026.258-.004.087-.026.17-.026.258 0 4.276 3.358 7.742 7.5 7.742M476.5 164a7.5 7.5 0 1 0 0 15 7.5 7.5 0 0 0 0-15M482 130v-12h12v-12h-12V94h-12v12h-12v12h12v12h12zM470 154v-12h-12v-12h-12v12h-12v12h12v12h12v-12h12zM500.5 95a7.5 7.5 0 1 0 0-15 7.5 7.5 0 0 0 0 15M506 46V34h12V22h-12V10h-12v12h-12v12h12v12h12zM518 154v-12h-12v-12h-12v12h-12v12h12v12h12v-12h12zM530 130v-12h12v-12h-12V94h-12v12h-12v12h12v12h12zM524.5 164a7.5 7.5 0 1 0 0 15 7.5 7.5 0 0 0 0-15M410 46V34h12V22h-12V10h-12v12h-12v12h12v12h12zM144 298v-12h12v-12h-12v-12h-12v12h-12v12h12v12h12zM96 298v-12h12v-12H96v-12H84v12H72v12h12v12h12z"/><path d="M476.5 164a7.5 7.5 0 1 0 0 15 7.5 7.5 0 0 0 0-15M524.5 164a7.5 7.5 0 1 0 0 15 7.5 7.5 0 0 0 0-15M482 250v-12h12v-12h-12v-12h-12v12h-12v12h12v12h12zM506 214v-12h12v-12h-12v-12h-12v12h-12v12h12v12h12zM500.5 264c4.142 0 7.5-3.466 7.5-7.742 0-.09-.022-.17-.026-.258.004-.087.026-.17.026-.258 0-4.276-3.358-7.742-7.5-7.742-4.142 0-7.5 3.466-7.5 7.742 0 .09.022.17.026.258-.004.087-.026.17-.026.258 0 4.276 3.358 7.742 7.5 7.742M482 298v-12h12v-12h-12v-12h-12v12h-12v12h12v12h12zM452.5 263a7.5 7.5 0 1 0 0-15 7.5 7.5 0 0 0 0 15M458 214v-12h12v-12h-12v-12h-12v12h-12v12h12v12h12zM422 226h-12v12h12v12h12v-12h12v-12h-12v-12h-12v12zM470 322v-12h-12v-12h-12v12h-12v12h12v12h12v-12h12zM422 322v-12h-12v-12h-12v12h-12v12h12v12h12v-12h12zM434 298v-12h12v-12h-12v-12h-12v12h-12v12h12v12h12z"/></g><circle fill="#FFF" cx="265" cy="155" r="189"/><path d="M335.01 232.802H197.7c-7.63 0-13.817-7.332-13.817-16.376v-93.693c0-9.045 6.187-16.377 13.818-16.377h137.31c7.633 0 13.82 7.332 13.82 16.377v93.693c0 9.044-6.187 16.376-13.82 16.376z" stroke="#EEEDE5" stroke-width="5" stroke-dasharray="14.104,9.067"/><path d="M325.598 233.892H166.673v-9.14h158.925v9.14z" fill="#FEBC4E"/><path d="M161 243h170.27v-9.108H161V243z" fill="#FFCB66"/><path d="M161 156.526h170.27v-9.11H161v9.11z" fill="#FEBC4E"/><path d="M246.135 92.33l-79.463 55.087h158.925L246.135 92.33z" fill="#FFCB66"/><path d="M193.23 139.1l52.905-36.666L299.04 139.1H193.23z" fill="#FEBC4E"/><g transform="translate(161 28)"><path d="M85.135 90.276c-3.197 0-5.79 2.605-5.79 5.823 0 3.2 2.593 5.804 5.79 5.804s5.798-2.603 5.798-5.805c0-3.22-2.6-5.824-5.798-5.824m0 16.62c-5.935 0-10.757-4.844-10.757-10.797 0-5.97 4.822-10.814 10.757-10.814 5.924 0 10.746 4.844 10.746 10.813 0 5.952-4.82 10.795-10.745 10.795" fill="#FFF"/><path d="M150.547 24.12H105.83v24.342a3.44 3.44 0 0 0 3.437 3.446h41.28L136.71 38.016l13.837-13.896z" fill="#FFCB66"/><path d="M106.843 18.218a3.448 3.448 0 0 0-1.012 2.432v27.813c0-1.91 1.538-3.47 3.436-3.47h18.132a3.42 3.42 0 0 0 2.68-1.286c.474-.598.774-1.342.774-2.163V17.202h-21.586a3.39 3.39 0 0 0-2.423 1.016" fill="#FEBC4E"/><path d="M130.85 13.734v27.81c0-1.91-1.557-3.468-3.452-3.468H86.134V10.283h41.264a3.457 3.457 0 0 1 3.453 3.45" fill="#FFCB66"/><path d="M115.072 24.182c0 3.655-2.96 6.608-6.58 6.608-3.635 0-6.58-2.953-6.58-6.608s2.945-6.612 6.58-6.612c3.62 0 6.58 2.957 6.58 6.612" fill="#FFF"/><mask id="b" fill="#fff"><use xlink:href="#a"/></mask><path d="M84.135 63.66h2V4.78h-2v58.88z" fill="#D9D8D7" mask="url(#b)"/><path d="M87.62 2.496a2.5 2.5 0 0 1-2.485 2.495 2.498 2.498 0 0 1-2.485-2.494A2.487 2.487 0 0 1 85.135 0c1.37 0 2.486 1.11 2.486 2.496M90.104 63.66a2.57 2.57 0 0 1-.728 1.776c-.488.48-1.123.72-1.755.72h-4.97c-.633 0-1.27-.24-1.755-.72-.48-.5-.73-1.138-.73-1.775s.25-1.275.73-1.754c.486-.5 1.122-.74 1.755-.74h4.97c.633 0 1.268.24 1.756.74.48.48.728 1.117.728 1.755" fill="#FFF" mask="url(#b)"/><path d="M16.747 128.525v68.23H29.23l.004-49.137c0-7.997 6.424-14.48 14.366-14.534h.204c7.917.055 14.315 6.482 14.37 14.432v49.238H70.67v-49.136c0-7.997 6.425-14.48 14.357-14.534h.203c7.95.055 14.375 6.537 14.375 14.534v49.136h12.492V147.55c.037-7.966 6.445-14.41 14.358-14.466h.2c7.95.055 14.375 6.537 14.375 14.534l.007 49.136h12.488v-68.23H16.747z" fill="#FFCB66" mask="url(#b)"/><path d="M43.703 133.08c-7.99 0-14.468 6.506-14.468 14.538v49.136h3.044v-49.136c0-6.33 5.12-11.47 11.423-11.47s11.432 5.14 11.432 11.47v49.136h3.044v-49.136c0-8.032-6.48-14.54-14.477-14.54M85.128 133.08c-7.98 0-14.46 6.506-14.46 14.538v49.136h3.047v-49.136c0-6.33 5.12-11.47 11.413-11.47 6.3 0 11.44 5.14 11.44 11.47v49.136h3.037v-49.136c0-8.032-6.48-14.54-14.477-14.54M126.555 133.08c-7.982 0-14.46 6.506-14.46 14.538v49.136h3.054v-49.136c0-6.33 5.11-11.47 11.405-11.47 6.3 0 11.44 5.14 11.44 11.47v49.136h3.035v-49.136c0-8.032-6.48-14.54-14.475-14.54" fill="#FEBC4E" mask="url(#b)"/></g></g></svg>