<svg xmlns="http://www.w3.org/2000/svg" width="230" height="230" viewBox="0 0 230 230"><title>slashPattern</title><g opacity=".05"><path d="M230 0v3.3L226.7 0h3.3zM210.3 0L230 19.7v6.5L203.7 0h6.6zM187.3 0L230 42.7v6.5L180.7 0h6.6zM164.3 0L230 65.7v6.5L157.7 0h6.6zM141.3 0L230 88.7v6.5L134.7 0h6.6zM118.3 0L230 111.7v6.5L111.7 0h6.6zM95.3 0L230 134.7v6.5L88.7 0h6.6zM72.3 0L230 157.7v6.5L65.7 0h6.6zM49.3 0L230 180.7v6.5L42.7 0h6.6zM26.3 0L230 203.7v6.5L19.7 0h6.6zM3.3 0L230 226.7v3.3h-3.3L0 3.3V0h3.3zM210.3 230h-6.5L0 26.3v-6.5L210.3 230zM187.3 230h-6.5L0 49.3v-6.5L187.3 230zM164.3 230h-6.5L0 72.3v-6.5L164.3 230zM141.3 230h-6.5L0 95.3v-6.5L141.3 230zM118.3 230h-6.5L0 118.3v-6.5L118.3 230zM95.3 230h-6.5L.1 141.3v-6.5L95.3 230zM72.3 230h-6.5L.1 164.3v-6.5L72.3 230zM49.3 230h-6.5L.1 187.3v-6.5L49.3 230zM26.3 230h-6.5L.1 210.3v-6.5L26.3 230zM3.3 230H0v-3.3l3.3 3.3z"/></g></svg>