<svg width="279" height="60" viewBox="0 0 279 60" xmlns="http://www.w3.org/2000/svg" xmlns:xlink="http://www.w3.org/1999/xlink"><title>HPHC_186_C</title><defs><path id="a" d="M.043.682h278.872v58.91H.043V.68z"/></defs><g fill="none" fill-rule="evenodd"><g><mask id="b" fill="#fff"><use xlink:href="#a"/></mask><path d="M26.58 13.46v5.112h-5.282v5.28h5.282v5.283h5.28v-5.282h5.283v-5.28H31.86V13.46h2.557l5.282 3.75 5.28-3.75h2.386v5.112h-5.11v5.452l5.11-.17v10.053h-5.11v-5.112h-5.283v5.112H31.69v5.45h5.283V44.3h-2.556l-5.11-3.408-5.283 3.407h-2.556v-4.942h5.282v-5.45h-5.282v-5.113h-5.452v5.112h-4.94V23.853h5.11v-5.28h-5.11V13.46h2.384l5.282 3.75 5.282-3.75h2.556zm10.222-2.215c-.018-1.512 1.27-2.8 2.897-2.726 1.554-.076 2.843 1.213 2.895 2.725-.052 1.67-1.34 2.958-2.896 2.897-1.627.06-2.916-1.228-2.898-2.897zm-20.957 0C15.9 9.72 17.19 8.432 18.742 8.35c1.63.082 2.918 1.37 2.896 2.895.022 1.656-1.267 2.946-2.896 2.897-1.552.05-2.84-1.24-2.897-2.897zm10.564 35.61c-.06-1.624 1.23-2.914 2.896-2.897 1.513-.017 2.802 1.273 2.726 2.897.076 1.556-1.213 2.845-2.726 2.896-1.667-.05-2.956-1.34-2.897-2.895zm2.725 12.78C15.283 53.87 4.362 44.728.852 26.75-.19 21.33-.082 8.79.342 4.43 17.05-.507 41.32-.507 57.93 4.26c.425 4.456.625 16.972-.51 22.49-3.415 17.88-14.392 27.12-28.285 32.884z" fill="#D12138" mask="url(#b)"/></g><path d="M69.005 5.11V4.09l4.6.17 4.09-.17v1.02c-1.098-.02-1.815.023-2.046.172-.277.03-.44.135-.512.34-.17.154-.243.63-.34 1.364.067.237.052 1.64 0 4.26v2.044c1.962.113 4.35.142 7.156.17 2.166-.013 3.882-.042 5.11-.17v-2.045c.086-1.32.07-2.634 0-3.92-.004-.968-.078-1.52-.17-1.702a.902.902 0 0 0-.51-.34c-.31-.135-1.026-.18-2.215-.172V4.09c2.128.09 3.59.118 4.428.17.268-.052 1.716-.08 4.26-.17v1.02c-1.096-.02-1.813.023-2.045.172-.29.03-.455.135-.51.34-.168.154-.243.63-.34 1.364.052.237.038 1.64 0 4.26v6.985c-.007 1.293.008 2.606 0 3.92.067.925.127 1.478.17 1.703.196.147.375.282.68.34.217.106.934.15 2.045.172v1.022a69.356 69.356 0 0 0-4.6-.17c-1.348-.008-2.69.022-4.09.17v-1.022c1.175-.006 1.892-.05 2.216-.17.183-.06.362-.18.51-.342.077-.18.15-.658.17-1.363.01-.28.026-1.684 0-4.26v-3.407c-2.69-.106-4.795-.136-6.303-.17-1.522.034-3.522.064-5.962.17v3.408c.007 1.293.022 2.606 0 3.92.082.925.142 1.478.34 1.703.04.147.22.282.51.34.217.106.934.15 2.046.172v1.022c-1.26-.148-2.635-.193-4.09-.17a41.7 41.7 0 0 0-4.6.17v-1.022c1.16-.006 1.875-.05 2.216-.17.182-.06.362-.18.51-.342.075-.18.15-.658.17-1.363.01-.28.024-1.684 0-4.26v-6.985c.07-1.32.054-2.634 0-3.92-.005-.968-.08-1.52-.17-1.702a.91.91 0 0 0-.51-.34c-.31-.135-1.027-.18-2.215-.172M103.08 17.38c-1.27.277-2.374.516-3.236.85-.974.218-1.615.486-2.045.853-.183.096-.378.35-.512.68-.298.506-.418 1.058-.51 1.705.077.697.27 1.264.68 1.704.412.396.98.59 1.704.68a5.007 5.007 0 0 0 2.045-.68c.59-.35 1.23-.918 1.874-1.704v-4.09zm-6.814-2.216l-.852-.34c.038-.153.038-.466 0-.853.053-.432.053-.76 0-1.02 1.292-.816 2.322-1.368 3.067-1.705.69-.17 1.375-.275 2.216-.34 1.07.065 2.025.274 2.726.68.852.445 1.42 1.057 1.874 1.875.187.54.306 1.3.34 2.215v7.156c-.08.558-.05.902 0 1.194.1.066.19.17.34.17.074.135.283.165.683.17l.85.17v.853c-.76-.118-1.475-.148-2.044-.17a18.12 18.12 0 0 0-2.385.17V22.66c-2.016 1.565-3.21 2.43-3.577 2.556-.394.262-.872.352-1.534.34-1.115.027-2.055-.287-2.727-.85-.672-.72-1-1.57-1.022-2.727.008-.606.113-1.233.342-1.875.248-.493.532-.94.852-1.193a3.623 3.623 0 0 1 1.022-.852c.554-.24 1.48-.523 2.726-.85a58.128 58.128 0 0 1 3.92-.683c.012-.93-.092-1.66-.342-2.215-.228-.506-.63-.94-1.193-1.363-.572-.25-1.26-.413-2.044-.512-.618.084-1.125.16-1.534.34-.488.133-.757.267-.852.34l-.34.513c-.206.67-.4 1.13-.512 1.534zM108.533 25.387v-.852c1.19-.072 1.788-.087 1.874-.17.183.024.303-.02.34 0 .142-.14.2-.23.342-.34.007-.248.067-.606.17-1.023-.013-2.732.017-4.12 0-4.26v-1.704c.017-.843.002-1.693.002-2.556-.045-.644-.09-.988-.173-1.192-.052-.02-.157-.094-.342-.17-.143-.044-.784-.06-1.874 0v-.853c1.94-.325 3.403-.683 4.26-1.192.277-.043.41-.088.51-.17.035.067.08.082.17.17 0 .016.014.09 0 .17.03.085.03.16 0 .34-.03.52-.06 1.46 0 2.727.373-.49.775-.997 1.194-1.533.343-.495.612-.823.852-1.024.237-.202.58-.396 1.022-.51.334-.2.737-.274 1.193-.342.38.053.783.142 1.192.34l.17.172c-.22 1.332-.295 2.496-.34 3.578h-.682a2.524 2.524 0 0 0-.852-1.193 1.655 1.655 0 0 0-1.022-.17c-.8-.076-1.443.238-2.044.852-.488.654-.757 1.594-.68 2.897v1.532c-.077.627-.062 1.82 0 3.578 0 .6.012.99 0 1.193.102.138.147.258.17.34.112.068.216.127.34.17.34.106 1.145.196 2.385.342v.852a82.233 82.233 0 0 0-4.428-.17c-1.244.007-2.468.037-3.75.17M127.445 25.557c-.33-1.094-.6-1.765-.68-2.044l-1.364-2.897-3.066-7.156c-.115-.444-.28-.742-.51-.852-.053-.19-.202-.278-.342-.34-.173-.013-.532-.042-1.193 0v-1.023c1.69.115 2.885.145 3.577.17.92-.01 2.054-.04 3.578-.17v1.022c-1.137-.04-1.764.018-1.874.17-.26.073-.35.222-.34.342-.026.37.168 1.013.512 2.043l1.874 4.43.51 1.022c.406 1.234.734 2.024.853 2.386l1.532-3.407c.125-.133.572-1.25 1.363-3.237.507-1.238.82-2.133 1.023-2.726-.008-.214.007-.363 0-.51a.312.312 0 0 0-.17-.342c-.24-.123-.868-.197-1.875-.17v-1.023c1.44.115 2.38.145 2.897.17.26-.01 1.2-.04 2.726-.17v1.022c-.572-.04-.974.033-1.193.17-.2.087-.393.31-.68.682-.057.24-.594 1.315-1.535 3.237l-1.363 3.067c-.307.518-1.16 2.533-2.726 6.133h-1.535M144.995 17.38c-1.252.278-2.356.516-3.237.85-.955.22-1.596.488-2.045.853-.164.097-.358.35-.51.68-.28.507-.4 1.06-.342 1.705-.072.697.122 1.264.512 1.704.43.396.998.59 1.704.68a4.833 4.833 0 0 0 2.045-.68c.608-.35 1.25-.917 1.875-1.704v-4.09zm-6.815-2.216l-.852-.34c.057-.15.057-.464 0-.853.072-.43.072-.76 0-1.02 1.31-.814 2.34-1.366 3.237-1.705.537-.17 1.223-.273 2.044-.34 1.088.067 2.043.276 2.896.68.7.447 1.266 1.06 1.704 1.875.204.542.323 1.303.34 2.215v7.156c-.06.56-.03.902 0 1.194.118.067.207.17.34.17.09.135.3.165.682.17l.853.17v.853c-.74-.118-1.458-.148-2.045-.17-.637.007-1.428.037-2.385.17V22.66c-2 1.565-3.192 2.43-3.578 2.556-.376.262-.853.352-1.364.34-1.265.027-2.205-.287-2.896-.85-.652-.72-.98-1.57-1.022-2.727.026-.606.13-1.232.34-1.875.268-.492.552-.94.853-1.193a4.275 4.275 0 0 1 1.022-.852c.572-.238 1.498-.52 2.726-.85a64.603 64.603 0 0 1 3.92-.683c.03-.93-.074-1.66-.342-2.215-.21-.504-.613-.937-1.193-1.363a4.124 4.124 0 0 0-2.043-.342c-.6-.084-1.107-.01-1.534.17-.468.134-.737.268-.852.34l-.34.513c-.185.67-.38 1.133-.51 1.534zM150.788 25.387v-.852c1.175-.072 1.77-.087 1.874-.17.165.024.284-.02.34 0 .124-.14.183-.23.17-.34.163-.248.223-.606.172-1.023.14-2.732.17-4.12.17-4.26v-1.704c0-.843-.015-1.693 0-2.556-.06-.644-.104-.988-.17-1.192-.07-.02-.173-.094-.34-.17-.162-.044-.803-.06-1.875 0v-.853c1.92-.325 3.383-.683 4.258-1.192.26-.043.395-.088.51-.17.02.067.064.082.172.17-.02.016-.004.09 0 .17.01.085.01.16 0 .34-.05.52-.078 1.46-.17 2.727.524-.49.927-.997 1.362-1.533.326-.495.594-.823.852-1.024.22-.202.565-.396 1.022-.51.317-.2.72-.274 1.193-.342.363.053.765.142 1.192.34v.172c-.068 1.332-.144 2.496-.17 3.578h-.683c-.217-.544-.485-.888-.852-1.193a1.705 1.705 0 0 0-1.022-.17c-.82-.076-1.46.238-2.045.852-.505.654-.773 1.594-.85 2.897v1.532c.077.627.092 1.82.17 3.578-.02.6-.004.99 0 1.193.086.138.13.258.17.34.094.068.2.127.34.17.322.106 1.127.196 2.386.342v.852a83.547 83.547 0 0 0-4.43-.17c-1.26.007-2.484.037-3.748.17M173.62 14.482c-.724-.78-1.426-1.316-2.217-1.703-.7-.3-1.418-.465-2.215-.513a4.633 4.633 0 0 0-2.214.682c-.66.395-1.182 1.022-1.533 1.873-.38.835-.558 1.85-.51 3.067-.048 1.798.4 3.215 1.363 4.26.842 1 1.932 1.507 3.237 1.533.634-.01 1.23-.145 1.704-.51.587-.187 1.05-.59 1.533-1.194.308-.486.56-1.083.68-1.705.075-.468.105-1.542.173-3.237v-2.556zm-2.557-9.37V4.26c1.146-.168 2.072-.302 2.897-.512.697-.12 1.443-.313 2.215-.51h.17c-.046.914-.092 2.54-.17 4.94v11.757a37.83 37.83 0 0 0 0 2.726c.034.655.093 1.087.17 1.193a.683.683 0 0 0 .51.34c.175.15.787.24 1.875.342v.852c-1.253-.118-2.103-.148-2.555-.17a34.43 34.43 0 0 0-2.727.17c.074-.744.09-1.67.172-2.897-.44.347-.978.78-1.705 1.363a54.86 54.86 0 0 1-1.533 1.363 7.044 7.044 0 0 1-2.045.34 6.147 6.147 0 0 1-3.236-.85 5.147 5.147 0 0 1-2.044-2.386c-.577-1.065-.83-2.26-.853-3.578.022-.995.17-1.935.512-2.897.286-.83.674-1.515 1.192-2.044.244-.23.855-.65 1.874-1.192.892-.606 1.654-1.01 2.216-1.192.63-.325 1.274-.444 2.045-.512.558.053 1.17.128 1.705.34.66.1 1.24.325 1.875.683v-3.92c-.054-1.408-.113-2.243-.172-2.555-.09-.106-.164-.18-.34-.17-.137-.16-.823-.205-2.045-.17zM69.005 33.054v-1.022l4.6.17 4.09-.17v1.022c-1.1-.028-1.816.017-2.046.17-.278.027-.443.13-.512.34-.17.15-.244.627-.34 1.364.066.232.05 1.636 0 4.26v2.044c1.962.108 4.35.137 7.156.17 2.163-.018 3.88-.048 5.11-.17v-2.044c.083-1.326.068-2.64 0-3.92-.007-.972-.08-1.525-.17-1.703a.87.87 0 0 0-.51-.34c-.312-.14-1.028-.184-2.215-.17V32.03c2.126.084 3.59.114 4.428.17.265-.056 1.713-.086 4.26-.17v1.022c-1.1-.028-1.816.017-2.045.17-.293.027-.457.13-.51.34-.172.15-.246.627-.34 1.364.05.232.034 1.636 0 4.26v6.985c-.01 1.286.004 2.6 0 3.92.064.917.123 1.47.17 1.703.193.14.372.275.68.34.214.098.93.143 2.045.17v1.023a60.163 60.163 0 0 0-4.6-.17c-1.35-.017-2.693.013-4.09.17v-1.023c1.173-.013 1.89-.057 2.216-.17.18-.066.36-.187.51-.34.074-.19.148-.668.17-1.364.008-.288.023-1.692 0-4.26v-3.407c-2.693-.113-4.797-.143-6.303-.17-1.523.027-3.523.057-5.962.17v3.407c.007 1.286.022 2.6 0 3.92.08.917.14 1.47.34 1.703.04.14.218.275.51.34.216.098.932.143 2.046.17v1.023c-1.263-.157-2.636-.2-4.09-.17a38.04 38.04 0 0 0-4.6.17v-1.023c1.16-.013 1.875-.057 2.216-.17.182-.066.36-.187.51-.34.075-.19.15-.668.17-1.364.01-.288.024-1.692 0-4.26v-6.985c.07-1.326.054-2.64 0-3.92-.006-.972-.08-1.525-.17-1.703a.86.86 0 0 0-.51-.34c-.31-.14-1.027-.184-2.215-.17M96.095 44.81c.188.066.71.096 1.534.17 1.444 0 2.46.016 3.066 0 1.274.03 2.14.016 2.555 0a4.527 4.527 0 0 0 0-.68c.033-1.483-.28-2.633-.85-3.408-.7-.702-1.55-1.06-2.556-1.023-1.187-.053-2.083.35-2.726 1.192-.745.77-1.088 2.038-1.023 3.748zm9.542 6.135l-.512 1.02c-.708.478-1.2.762-1.533.853-.46.267-.995.43-1.533.51-.672.22-1.3.294-2.046.343-1.238-.048-2.417-.317-3.408-.852a5.788 5.788 0 0 1-2.555-2.385c-.602-1.17-.885-2.438-.85-3.92-.05-1.128.1-2.16.34-3.066.386-.944.744-1.615 1.192-2.044.238-.332.686-.69 1.363-1.193.532-.334 1.13-.662 1.704-.852a5.54 5.54 0 0 1 2.555-.51 6.406 6.406 0 0 1 3.067.68 6.57 6.57 0 0 1 2.044 2.045c.34.946.548 1.93.51 3.067.038.25.023.58 0 1.022-.738.11-1.38.2-1.873.17-1.148.15-2.223.18-3.237.17h-4.77c-.066 1.44.172 2.59.68 3.41a4.553 4.553 0 0 0 1.875 2.043c.887.39 1.752.6 2.727.682.518-.082 1.115-.172 1.704-.34.62-.22 1.367-.58 2.216-1.023l.34.17zM116.71 45.322c-1.268.27-2.373.51-3.236.85-.972.212-1.614.48-2.044.853-.182.09-.376.345-.512.682-.297.497-.416 1.05-.51 1.704.08.69.273 1.257.68 1.705.414.388.98.582 1.705.68a5.237 5.237 0 0 0 2.044-.68c.59-.358 1.232-.926 1.874-1.704v-4.088zm-6.814-2.215l-.852-.34c.04-.16.04-.473 0-.853.055-.44.055-.77 0-1.022 1.294-.82 2.324-1.373 3.067-1.704.69-.177 1.377-.28 2.216-.34 1.07.06 2.026.268 2.726.68.852.44 1.42 1.05 1.874 1.875.187.533.306 1.295.34 2.215v7.156c-.078.55-.05.893 0 1.022.1.23.19.334.342.34.072.128.28.158.68.17l.853.172v.85a14.568 14.568 0 0 0-2.043-.17c-.655 0-1.446.03-2.386.17v-2.725c-2.015 1.557-3.208 2.422-3.577 2.556-.392.253-.87.343-1.533.343-1.113.015-2.053-.3-2.726-1.025-.67-.558-1-1.408-1.022-2.556.008-.613.112-1.24.34-1.874.25-.5.534-.947.852-1.193.34-.412.667-.65 1.023-.852.554-.246 1.48-.53 2.726-.85 1.366-.292 2.65-.515 3.918-.683.016-.937-.09-1.668-.34-2.215-.226-.513-.63-.946-1.192-1.363-.572-.254-1.26-.418-2.045-.512-.616.08-1.124.154-1.533.34-.486.127-.755.26-.852.342l-.34.51c-.204.663-.398 1.126-.512 1.535zM122.334 53.33v-.852h1.363c.21-.08.374-.11.51-.17.103-.074.193-.148.172-.342.184-.12.244-.463.34-1.02-.067-.085-.037-1.502 0-4.26V40.55c.038-1.702.008-3.42 0-5.11-.082-1.28-.126-1.936-.17-2.045-.09-.13-.165-.19-.342-.17-.092-.14-.78-.17-2.044-.17v-.853c2.28-.31 3.833-.653 4.77-1.022.077-.124.167-.153.34-.17-.024.017.02.032 0 .17.11-.048.125.012.17.17-.03-.01-.03.08 0 .17v.512a86.784 86.784 0 0 0-.17 4.6v10.053c.02 2.594.05 3.982 0 4.26.066.44.125.796.17 1.02.104.106.164.18.172.172.156.142.276.187.51.17-.01.062.542.076 1.534.17v.852a32.45 32.45 0 0 0-3.578-.17c-.906-.017-2.19.013-3.748.17M130.172 41.573v-.68c.924-.33 1.715-.658 2.385-1.024-.073-2.307-.103-3.814-.17-4.43 1.037-.414 1.873-.787 2.555-1.193l.34.34c-.112.768-.23 2.588-.34 5.453.766-.044 1.243-.044 1.363 0 .134-.03.64-.03 1.534 0 .554-.06.942-.073 1.19-.17l.172.17-.34 1.363a42.4 42.4 0 0 1-1.705 0c-.57-.004-1.3-.004-2.215 0l-.17 6.133c.025 1.43.025 2.31 0 2.556.13.336.22.59.34.853.163.17.342.333.512.51.277.078.65.167 1.192.34.414-.083.742-.098 1.023-.17.225.01.54-.077 1.02-.17l.17.51c-.532.374-.98.747-1.362 1.194-.438.103-.78.193-1.192.17-.26.113-.634.128-1.023.17a7.832 7.832 0 0 1-1.363-.17c-.248-.157-.53-.32-.852-.512-.202-.226-.41-.494-.51-.852-.244-.314-.35-.822-.34-1.533-.068-.677-.053-1.407 0-2.215a6.13 6.13 0 0 1 0-.51v-6.135h-.683c-.415-.084-.967-.07-1.533 0M139.883 53.33v-.852h1.363c.173-.08.337-.11.512-.17.064-.074.154-.148.17-.342.148-.12.207-.463.17-1.02.067-.085.097-1.502.17-4.26v-7.67c0-1.69-.028-3.408-.17-5.11.05-1.267.007-1.924 0-2.045-.127-.117-.2-.177-.34-.17-.13-.126-.818-.156-2.045-.17v-.85c2.243-.3 3.795-.643 4.77-1.024.04-.112.13-.142.17-.17.11.028.154.043.17.17.074-.037.088.022.172.17-.068 0-.068.092-.17.17v.512c.012 1.827-.018 3.335 0 4.6v6.646c.072-.062.46-.39 1.193-1.023.566-.515.938-.844 1.02-1.02.23-.122.38-.24.513-.342a4.81 4.81 0 0 0 .852-.34c.494-.052.987-.11 1.534-.17a6.14 6.14 0 0 1 2.556.68c.822.44 1.39.976 1.703 1.704.328.6.477 1.57.512 2.897v4.6c.054 1.325.07 2.042 0 2.215.084.468.144.81.17 1.02.11.106.167.18.34.342-.008-.013.11.032.34 0-.006.062.503.076 1.534.17v.852c-1.18-.11-2-.127-2.553-.17-.403.03-1.297.043-2.727.17.19-1.53.25-2.962.34-4.43v-3.578c-.075-1.206-.15-2.027-.34-2.556-.153-.5-.496-.95-1.022-1.363-.52-.392-1.206-.586-2.045-.682-.578.083-1.056.157-1.533.342-.39.128-.775.366-1.192.682-.316.327-.615.67-.853 1.022a.92.92 0 0 0-.17.68c-.114.236-.13.744-.17 1.535v1.705c.072 2.594.102 3.982.17 4.26-.04.44.02.796.17 1.02-.015.106.045.18.17.342.038-.013.157.032.34 0 .043.062.594.076 1.705.17v.852a73.335 73.335 0 0 0-3.75-.17c-.57 0-1.838.03-3.747.17M179.922 50.603l-.51 1.363a20.265 20.265 0 0 1-3.408 1.363c-1.17.217-2.38.352-3.748.34-1.497.012-2.93-.182-4.26-.51-1.312-.448-2.46-1-3.407-1.705-1.055-.728-1.86-1.535-2.557-2.385-.557-.955-1.034-1.925-1.364-2.897-.33-1.118-.493-2.266-.51-3.578.017-3.12 1.122-5.748 3.406-7.837 2.134-2.09 5.147-3.134 9.03-3.067a8.446 8.446 0 0 1 2.556.17c.696.018 1.635.212 2.727.513 1.117.296 1.788.46 2.042.51a16.97 16.97 0 0 0-.51 1.705c-.116.752-.22 1.722-.34 2.896h-.853V35.61c-.148-.898-.686-1.613-1.705-2.045-.95-.54-2.384-.777-4.26-.852-1.422.09-2.616.27-3.577.682-1.024.273-1.89.81-2.726 1.533a8.884 8.884 0 0 0-1.704 2.897c-.533 1.097-.772 2.514-.852 4.26.065 3 .975 5.418 2.897 7.326 1.765 1.764 4.197 2.675 7.155 2.727 1.43-.037 2.683-.217 3.92-.682.733-.177 1.524-.58 2.385-1.192l.17.34M189.635 45.322c-1.344.27-2.45.51-3.41.85-.875.212-1.516.48-1.872.853-.257.09-.45.345-.682.682a4.862 4.862 0 0 0-.34 1.704c.006.69.2 1.257.682 1.705.338.388.905.582 1.704.68.59-.083 1.246-.262 1.874-.68.685-.358 1.327-.926 2.045-1.704v-4.088zm-6.987-2.215l-.68-.34c-.035-.16-.035-.473 0-.853a8.91 8.91 0 0 1 0-1.022c1.22-.82 2.247-1.373 3.067-1.704.614-.177 1.3-.28 2.044-.34 1.165.06 2.12.268 2.896.68a3.864 3.864 0 0 1 1.703 1.875c.28.533.4 1.295.34 2.215v7.156c.016.55.046.893.17 1.022.025.23.115.334.17.34.17.128.378.158.682.17l1.023.172v.85a16.605 16.605 0 0 0-2.215-.17c-.56 0-1.35.03-2.386.17l.17-2.725c-2.09 1.557-3.284 2.422-3.748 2.556-.297.253-.774.343-1.363.343-1.187.015-2.127-.3-2.896-1.025-.574-.558-.903-1.408-.852-2.556-.066-.613.038-1.24.34-1.874.176-.5.46-.947.852-1.193.263-.412.592-.65.853-.852.65-.246 1.575-.53 2.896-.85 1.29-.292 2.575-.515 3.92-.683-.062-.937-.167-1.668-.342-2.215-.302-.513-.705-.946-1.193-1.363-.645-.254-1.332-.418-2.214-.512-.52.08-1.028.154-1.533.34-.39.127-.66.26-.682.342l-.34.51c-.278.663-.472 1.126-.682 1.535zM195.087 53.33v-.852c1.116-.08 1.713-.095 1.874-.17.11.016.228-.03.342-.17.065.022.125-.067.17-.172.105-.254.164-.613.17-1.02.085-2.742.114-4.13.17-4.26V44.98c-.056-.85-.07-1.7-.17-2.554.054-.654.01-.998 0-1.194-.125-.027-.23-.1-.34-.17-.218-.05-.86-.066-2.045 0v-.852c2.036-.334 3.498-.69 4.43-1.193.202-.05.337-.095.34-.17.13.06.176.075.17.17.096.01.11.083.172.17-.048.078-.048.153 0 .342-.108.51-.137 1.45-.172 2.725a9.434 9.434 0 0 0 1.193-1.534c.44-.5.708-.828.853-1.02.333-.21.676-.405 1.022-.512.43-.207.833-.28 1.193-.34.476.044.88.133 1.363.34v.17c-.125 1.325-.2 2.488-.17 3.577h-.68c-.275-.55-.543-.893-.853-1.19a2.085 2.085 0 0 0-1.192-.172c-.708-.084-1.35.23-1.875.853-.563.644-.832 1.585-.852 2.896v1.533c.02.618.035 1.812.17 3.578-.075.592-.06.98 0 1.193a.62.62 0 0 0 .17.34c.038.06.143.12.342.17.263.098 1.07.188 2.385.342v.85a71.68 71.68 0 0 0-4.43-.17c-1.318 0-2.542.03-3.748.17M209.23 44.81c.184.066.706.096 1.532.17 1.443 0 2.458.016 3.067 0 1.27.03 2.136.016 2.555 0a5.716 5.716 0 0 0 0-.68c.03-1.483-.286-2.633-.852-3.408-.702-.702-1.552-1.06-2.556-1.023-1.19-.053-2.085.35-2.726 1.192-.747.77-1.09 2.038-1.02 3.748zm9.54 6.135l-.512 1.02c-.71.478-1.202.762-1.533.853-.46.267-.998.43-1.533.51-.674.22-1.3.294-2.045.343a9.265 9.265 0 0 1-3.578-.852 6.368 6.368 0 0 1-2.386-2.385c-.606-1.17-.89-2.438-.852-3.92a9.994 9.994 0 0 1 .34-3.066c.384-.944.742-1.615 1.194-2.044.235-.332.683-.69 1.363-1.193.528-.334 1.125-.662 1.703-.852.81-.377 1.66-.54 2.555-.51a6.42 6.42 0 0 1 3.067.68 6.64 6.64 0 0 1 2.045 2.045c.336.946.545 1.93.51 3.067.035.25.02.58 0 1.022-.74.11-1.384.2-1.873.17-1.152.15-2.226.18-3.238.17h-4.77c-.07 1.44.17 2.59.68 3.41a4.528 4.528 0 0 0 1.874 2.043c.884.39 1.75.6 2.727.682.516-.082 1.114-.172 1.705-.34.617-.22 1.362-.58 2.214-1.023l.34.17zM182.648 5.11V4.09c2.085.09 3.666.12 4.772.17a22.56 22.56 0 0 1 2.556 0l2.385-.17c.193.017.433.017.682 0 1.556 0 2.795.166 3.75.51.85.357 1.553.91 2.043 1.704.54.728.792 1.594.852 2.556-.06.888-.268 1.754-.682 2.556-.437.944-1.048 1.676-1.873 2.215a6.802 6.802 0 0 1-2.556 1.364c-.545.172-1.216.262-2.045.34-.558-.078-1.245-.138-2.044-.34l-.34-1.023c.96.166 1.646.255 2.215.342.7-.072 1.402-.25 2.045-.68.7-.287 1.224-.824 1.534-1.535.434-.767.613-1.572.68-2.385-.052-.934-.23-1.695-.68-2.386-.282-.697-.835-1.22-1.535-1.533-.777-.417-1.672-.596-2.726-.682-.947.087-1.963.25-3.067.513-.074 1.126-.118 2.767-.172 5.11v7.498c.055 1.294.07 2.607.173 3.92-.044.925.016 1.478.17 1.703.084.148.263.282.51.34.26.106.977.15 2.216.172v1.022a65.293 65.293 0 0 0-4.09-.17c-.344-.008-1.896.022-4.772.17v-1.022c1.25-.006 1.966-.05 2.216-.17.273-.06.452-.18.51-.342.166-.18.24-.658.342-1.363-.072-.28-.057-1.683 0-4.26v-6.985c-.013-1.317-.028-2.63 0-3.92-.087-.965-.162-1.516-.34-1.702-.045-.173-.224-.292-.512-.34-.22-.13-.936-.176-2.216-.172M200.028 13.12v-.853c1.954-.28 3.565-.698 4.94-1.363l.342.34a78.036 78.036 0 0 0-.17 4.772v2.726c.035 2.603.065 3.99 0 4.26.08.447.125.805.17 1.022.12.11.18.186.34.34 0-.02.123.025.34 0 .006.07.557.084 1.534.17v.853a59.665 59.665 0 0 0-3.578-.17c-.77.007-2.07.037-3.918.17v-.852h1.363c.293-.072.442-.102.512-.17.17-.066.26-.14.34-.34.083-.114.142-.457.17-1.023.018-.076.047-1.493.172-4.26v-2.556c-.065-1.527-.11-2.41-.17-2.726a4.815 4.815 0 0 0-.34-.34c-.182-.028-.838-.06-2.046 0zm3.748-8.86c.385.056.772.22 1.023.51.405.367.57.755.51 1.193.06.487-.105.875-.51 1.193-.252.354-.64.518-1.024.51-.54.008-.93-.156-1.192-.51-.408-.303-.572-.69-.51-1.193-.062-.423.102-.81.51-1.192.248-.29.636-.454 1.192-.51zM208.718 25.387v-.852h1.363c.18-.072.344-.102.512-.17.07-.066.16-.14.17-.34.155-.114.215-.457.17-1.023.074-.076.104-1.493.17-4.26v-6.134c.01-1.696-.02-3.412 0-5.11-.11-1.272-.155-1.93-.17-2.046-.12-.12-.195-.18-.34-.17-.123-.13-.81-.16-2.045-.17V4.26c2.25-.302 3.803-.646 4.77-1.023.047-.115.136-.145.17-.17.116.025.16.04.172.17.077-.04.092.02.17.17-.063 0-.063.088-.17.17v.512c.017 1.823-.013 3.33 0 4.6V18.74c-.013 2.603.017 3.99 0 4.26.033.447.092.805.17 1.022.07.11.13.186.17.34.125-.02.245.025.34 0 .13.07.68.084 1.703.17v.853c-1.32-.133-2.5-.163-3.578-.17-.937-.008-2.22.022-3.747.17M232.74 25.387v-.852c1.16-.072 1.756-.087 1.876-.17.148.024.267-.02.34 0 .107-.14.166-.23.17-.34.145-.248.205-.606.17-1.023.125-2.732.154-4.12.17-4.26v-1.704a44.455 44.455 0 0 1 0-2.556c-.075-.644-.12-.988-.17-1.192-.085-.02-.188-.094-.34-.17-.177-.044-.818-.06-2.044 0v-.853c2.076-.325 3.538-.683 4.43-1.192.242-.043.378-.088.51-.17 0 .067.046.082.17.17-.034.016-.02.09 0 .17-.004.085-.004.16 0 .34-.064.52-.094 1.46-.17 2.727.508-.49.912-.997 1.364-1.533.31-.495.577-.823.68-1.024.374-.202.718-.396 1.024-.51.47-.2.874-.274 1.362-.342.348.053.75.142 1.193.34v.172c-.085 1.332-.16 2.496-.17 3.578h-.68c-.234-.544-.503-.888-.853-1.193a1.76 1.76 0 0 0-1.023-.17c-.838-.076-1.48.238-2.045.852-.523.654-.792 1.594-.852 2.897v1.532c.06.627.075 1.82.17 3.578-.035.6-.02.99 0 1.193.07.138.113.258.17.34a.854.854 0 0 0 .34.17c.305.106 1.11.196 2.387.342v.852a84.864 84.864 0 0 0-4.43-.17c-1.28.007-2.502.037-3.75.17M244.327 13.12v-.853c1.936-.28 3.548-.698 4.94-1.363l.342.34a56.856 56.856 0 0 0-.17 4.772v2.726c.017 2.603.046 3.99 0 4.26.06.447.106.805.17 1.022.1.11.16.186.17.34.154-.02.274.025.51 0-.012.07.54.084 1.534.17v.853c-1.457-.118-2.666-.148-3.578-.17-.79.007-2.088.037-3.92.17v-.852h1.364c.274-.072.423-.102.512-.17.15-.066.24-.14.34-.34.064-.114.124-.457.17-1.023 0-.076.028-1.493.17-4.26v-2.556c-.08-1.527-.127-2.41-.17-2.726a8.57 8.57 0 0 1-.34-.34c-.2-.028-.855-.06-2.045 0zm3.578-8.86c.537.056.925.22 1.193.51.388.367.553.755.51 1.193.043.487-.122.875-.51 1.193-.268.354-.656.518-1.193.51-.39.008-.776-.156-1.192-.51a1.432 1.432 0 0 1-.34-1.193c-.08-.423.084-.81.34-1.192.4-.29.788-.454 1.192-.51zM253.017 25.387v-.852h1.534c.178-.072.328-.102.51-.17.055-.066.145-.14.172-.34.137-.114.197-.457.17-1.023.072-.076.102-1.493.17-4.26v-1.704c-.008-.843-.023-1.693 0-2.556a20.822 20.822 0 0 0-.17-1.192c-.092-.02-.197-.094-.34-.17-.17-.044-.81-.06-2.045 0v-.853c2.084-.325 3.547-.683 4.43-1.192.25-.043.385-.088.51-.17.01.067.055.082.17.17-.026.016-.01.09 0 .17 0 .085.004.16.004.34-.044.402-.074 1.103-.172 2.046l2.044-1.703c.218-.284.367-.403.512-.51.154-.057.482-.176.85-.342.483-.058.93-.103 1.365-.17.997.052 1.85.276 2.554.68a4.285 4.285 0 0 1 1.704 2.216l1.704-1.533c.348-.384.602-.594.68-.68.325-.152.683-.286 1.194-.342.46-.2.922-.258 1.363-.34 1.17.067 2.11.366 2.896 1.022.75.553 1.243 1.224 1.532 2.044.07.465.13 1.554.17 3.24v3.577c.05 1.244.063 1.945 0 2.215.08.447.138.805.172 1.022.1.11.16.186.17.34.17-.02.29.025.51 0 0 .07.54.084 1.535.17v.853c-1.203-.118-2.055-.148-2.557-.17-.393.022-1.273.052-2.555.17l.17-4.26V18.23c-.038-1.587-.112-2.72-.34-3.407-.116-.538-.474-1.03-1.022-1.363-.54-.43-1.167-.608-1.874-.68-.83.058-1.576.296-2.214.85a2.127 2.127 0 0 0-1.023 1.193c-.146.522-.22 1.492-.17 2.897v3.067c-.006 1.244.01 1.945 0 2.215.04.447.098.805.17 1.022.063.11.123.186.17.34.117-.02.236.025.34 0 .12.07.672.084 1.704.17v.853a41.628 41.628 0 0 0-3.578-.17c-.648-.008-1.946.022-3.92.17v-.852h1.535c.17-.072.335-.102.512-.17.062-.066.152-.14.17-.34.147-.114.206-.457.17-1.023.065-.076.096-1.493.17-4.26V17.55c-.014-1.235-.105-2.16-.34-2.727-.168-.627-.51-1.09-1.022-1.533a4.385 4.385 0 0 0-1.704-.51c-.68.058-1.247.177-1.704.51-.603.174-1.006.487-1.363.852a6.11 6.11 0 0 0-.512 1.192c-.042.727-.086 1.548-.17 2.556v.852c.128 2.603.158 3.99.17 4.26 0 .447.063.805.17 1.022.027.11.087.186.17.34.08-.02.2.025.342 0 .097.07.634.084 1.704.17v.853a39.853 39.853 0 0 0-3.578-.17c-.805-.008-2.088.022-3.92.17M224.222 25.557c-1.527-.064-2.452-.05-2.896 0a.92.92 0 0 0-.51.34c-.853.506-1.27.805-1.364.853-.056.116-.16.31-.34.68-.163.51-.267 1.063-.342 1.705.075.985.477 1.865 1.363 2.556.726.743 1.846 1.1 3.237 1.194 1.086-.078 2.04-.287 2.897-.682.89-.456 1.546-1.023 2.044-1.704.4-.78.623-1.513.684-2.215-.09-.67-.18-1.148-.342-1.533-.167-.287-.362-.54-.68-.682-.16-.232-.472-.38-.853-.51-.277-.035-1.246-.05-2.898 0zm-4.43-10.052c.007.676.126 1.362.34 2.044.324.645.712 1.138 1.194 1.533a4.398 4.398 0 0 0 1.704.51c.933-.04 1.68-.308 2.385-.85.623-.563.95-1.443 1.022-2.727-.07-1.208-.4-2.193-1.022-2.897-.69-.79-1.482-1.163-2.385-1.193-.977.03-1.754.328-2.386 1.022-.547.53-.83 1.395-.852 2.555zm11.757-3.408l.17.34c-.314.55-.236.953-.342 1.194h-2.726c.16.566.266 1.118.342 1.704-.06.683-.255 1.414-.683 2.215-.362.66-.93 1.272-1.702 1.874a10.88 10.88 0 0 1-2.386 1.022c-.572.047-1.32.093-2.215 0-.7.585-1.104.973-1.363 1.192-.024.228-.07.423 0 .682a.39.39 0 0 0 .17.51c.104.26.33.38.682.512.393.062 1.184.122 2.386.17l3.237-.17c1.05.062 1.903.21 2.555.51.51.283.945.73 1.192 1.364.305.576.44 1.247.51 2.045-.056.98-.385 2.01-1.02 3.068-.708 1.075-1.692 1.91-3.068 2.556-1.282.58-2.76.877-4.43.852-1.36.04-2.523-.17-3.408-.682-1.04-.338-1.757-.904-2.215-1.704-.467-.648-.69-1.395-.682-2.215a3.07 3.07 0 0 1 .17-1.192c.134-.39.358-.793.682-1.193 1.213-.6 2.08-1.078 2.556-1.534-.76-.245-1.283-.5-1.534-.68-.228-.296-.332-.535-.34-.853-.008-.115.142-.652.51-1.533.41-.403 1.17-.97 2.215-1.704-.88-.266-1.568-.55-2.045-.852-.493-.37-.867-.817-1.193-1.363-.21-.602-.345-1.23-.34-1.873-.005-1.072.25-1.968.852-2.726.426-.852 1.29-1.494 2.554-2.044 1.2-.464 2.334-.718 3.408-.682a3.903 3.903 0 0 1 1.874.34c.634.16 1.216.49 1.704.853 1.93.084 2.883.08 3.92 0zM26.64 13.49v5.11h-5.28v5.282h5.28v5.282h5.283v-5.282h5.283V18.6h-5.283v-5.11h2.556l5.28 3.747 5.283-3.748h2.386v5.11h-5.114v5.452l5.113-.17v10.052h-5.114v-5.11h-5.28v5.11h-5.283v5.452h5.282v4.942H34.48l-5.112-3.408-5.282 3.408H21.53v-4.942h5.282v-5.452h-5.28v-5.11h-5.454v5.11h-4.94V23.882h5.11V18.6h-5.11v-5.11h2.384l5.282 3.747 5.282-3.748h2.555zm-.168 33.393c-.06-1.624 1.23-2.912 2.896-2.896 1.514-.016 2.802 1.272 2.726 2.896.076 1.557-1.212 2.846-2.726 2.897-1.667-.05-2.956-1.34-2.896-2.897zm10.393-35.61c-.02-1.512 1.27-2.8 2.896-2.726 1.555-.075 2.845 1.214 2.897 2.727-.052 1.668-1.342 2.957-2.896 2.896-1.625.06-2.914-1.228-2.895-2.896zm-20.957 0c.055-1.524 1.344-2.813 2.896-2.896 1.628.083 2.918 1.372 2.896 2.897.022 1.656-1.268 2.945-2.896 2.896-1.552.05-2.84-1.24-2.896-2.896z" fill="#FFF"/></g></svg>