<svg width="220" height="220" viewBox="0 0 220 220" xmlns="http://www.w3.org/2000/svg" xmlns:xlink="http://www.w3.org/1999/xlink"><title>fluVaccineFeature</title><defs><path id="a" d="M0 .085h219.915V220H0"/><path id="c" d="M0 .085h219.915V220H0V.085z"/></defs><g fill="none" fill-rule="evenodd"><mask id="b" fill="#fff"><use xlink:href="#a"/></mask><path d="M219.915 110.042c0 60.728-49.23 109.957-109.957 109.957S-.002 170.77-.002 110.04C0 49.315 49.232.086 109.96.086c60.728 0 109.957 49.23 109.957 109.956" fill="#FEC757" mask="url(#b)"/><mask id="d" fill="#fff"><use xlink:href="#c"/></mask><path d="M161.503 183.674H58.413V45.538h103.09v138.136z" fill="#979798" mask="url(#d)"/><path d="M151.87 173.94H68.046V55.274h83.824V173.94z" fill="#FEFEFE" mask="url(#d)"/><path d="M119.515 40.612v-.92a3.28 3.28 0 0 0-3.28-3.28H104.78a3.28 3.28 0 0 0-3.28 3.28v.92a3.28 3.28 0 0 1-3.278 3.28h-5.654a3.28 3.28 0 0 0-3.28 3.28v8.095a3.28 3.28 0 0 0 3.28 3.28h35.88a3.28 3.28 0 0 0 3.28-3.28V47.17a3.28 3.28 0 0 0-3.28-3.28h-5.654a3.28 3.28 0 0 1-3.28-3.278" fill="#CCCCCB" mask="url(#d)"/><path d="M118.37 87.218h-5.47v5.472h-5.884v-5.472h-5.472v-5.885h5.472v-5.47h5.883v5.47h5.47v5.885zm-8.413-17.703c-8.152 0-14.76 6.61-14.76 14.76 0 8.154 6.608 14.76 14.76 14.76 8.153 0 14.762-6.606 14.762-14.76 0-8.15-6.61-14.76-14.763-14.76z" fill="#EF4D4D" mask="url(#d)"/><path d="M141.648 116.27H78.265v-5.403h63.383v5.404zM141.648 129.157H78.265v-5.404h63.383v5.404zM141.648 142.043H78.265v-5.404h63.383v5.403zM109.425 154.927H78.267v-5.404h31.158v5.404z" fill="#CCCCCB" mask="url(#d)"/><path d="M128.45 43.89h-5.656a3.28 3.28 0 0 1-3.28-3.278v-.92a3.28 3.28 0 0 0-3.278-3.28h-5.728v147.262H161.5V45.538h-30.223a3.263 3.263 0 0 0-2.828-1.647" opacity=".3" fill="#FEFEFE" mask="url(#d)"/></g></svg>