<svg width="104" height="122" viewBox="0 0 104 122" xmlns="http://www.w3.org/2000/svg" xmlns:xlink="http://www.w3.org/1999/xlink"><title>placeholder_provider-female</title><defs><path id="a" d="M0 0h104v121.096H0z"/></defs><g fill="none" fill-rule="evenodd"><mask id="b" fill="#fff"><use xlink:href="#a"/></mask><use fill="#EEEDE5" xlink:href="#a"/><path d="M71.593 69.588l-1.668.738-.29 1.943c-1.128 7.525-2.58 10.264-8.7 14.7-2.46 1.78-5.837 4.675-9.045 4.65l-.266-.004-.274.005c-3.2.025-6.578-2.87-9.037-4.65-6.12-4.436-7.572-7.175-8.7-14.703l-.29-1.94-1.67-.74c-.912-.776-1.93-3.566-2.224-4.65-.242-.883-.762-3.552-.356-4.59l2.67-.58c2.44-12.42 10.342-12.884 12.094-25.163.718 4.928 9.09 24.255 29.98 30.334-.295 1.084-1.312 3.873-2.225 4.65m8.376-8.828c1.468-20.804-13.504-44.336-33.35-35.103C33.63 19.02 21.81 39.956 23.277 60.76c-5.963 17.637 2.064 29.652 16.94 29.102 3.973 2.88 7.047 5.363 11.172 5.33l.234-.003.233.002c4.125.033 7.2-2.45 11.173-5.33 14.876.55 22.902-11.465 16.94-29.102M47.257 121L32.24 95.847 0 105.65V121h47.257zM104 106.048l-31.72-10.2L56.276 121H104v-14.952z" fill="#F8F7F2" mask="url(#b)"/></g></svg>