<svg width="104" height="122" viewBox="0 0 104 122" xmlns="http://www.w3.org/2000/svg" xmlns:xlink="http://www.w3.org/1999/xlink"><title>placeholder_provider-male</title><defs><path id="a" d="M0 0h104v121.096H0z"/></defs><g fill="none" fill-rule="evenodd"><mask id="b" fill="#fff"><use xlink:href="#a"/></mask><use fill="#EEEDE5" xlink:href="#a"/><path d="M31.15 47.27c-1.94-8.802-2.287-13.972 2.036-17.45 6.224-5.006 10.786 2.82 17.77 2.508 6.983.31 11.545-7.514 17.77-2.508 4.322 3.478 3.973 8.648 2.035 17.45 4.226-.138 5.06 1.404 4.355 6.15-.645 4.326-1.842 7.235-4.103 7.535-.392 6.395.393 9.976-5.913 14.44-5.53 3.904-6.604 7.018-14.145 6.703-7.54.315-8.615-2.8-14.144-6.703-6.305-4.464-5.52-8.045-5.91-14.44-2.262-.3-3.46-3.21-4.104-7.536-.707-4.746.128-6.288 4.353-6.15m-7.887 6.676c.48 3.22 1.473 7.295 4.166 9.332.086 2.297.175 4.626.834 6.81 1.085 3.596 3.48 6.095 6.484 8.223 2.345 1.657 4.44 3.822 6.864 5.282 2.934 1.768 5.975 2.206 9.343 2.08 3.368.126 6.41-.312 9.344-2.08 2.422-1.46 4.518-3.625 6.862-5.28 3.006-2.13 5.4-4.628 6.484-8.223.66-2.186.75-4.515.835-6.812 2.694-2.037 3.688-6.112 4.167-9.332.413-2.77.597-5.91-1.452-8.13.45-12.485-.503-20.222-6.935-25.812-3.395-2.95-12.543-6.175-19.305-5.997-6.76-.178-15.91 3.048-19.305 5.997-6.432 5.59-7.385 13.327-6.935 25.813-2.048 2.218-1.864 5.36-1.452 8.13M104 121.047v-20.224L70.728 89 60.07 117.573l-5.066-14.287 3.586-7.12-3.557-7.12H47.89l-3.572 7.12 3.57 7.132-3.57 14.28-13.743-28.575L0 100.183v20.864h104z" fill="#F8F7F2" mask="url(#b)"/></g></svg>