<svg width="18" height="31" viewBox="0 0 18 31" xmlns="http://www.w3.org/2000/svg"><title>Fill 5939 Copy</title><path d="M10.41 22.92c1.493-.342 2.238-1.114 2.238-2.312 0-1.026-.745-1.893-2.237-2.603v4.914zM6.01 8.91c0 .88.782 1.65 2.346 2.31V6.86C6.792 7.174 6.01 7.86 6.01 8.91zM0 23.396c0-.685.246-1.37.746-2.054.5-.684 1.082-1.028 1.745-1.028.465 0 1.265.4 2.384 1.194 1.127.794 2.164 1.276 3.12 1.447v-5.94a65.313 65.313 0 0 1-2.093-.843c-.508-.22-1.144-.557-1.908-1.01-.755-.452-1.346-.915-1.755-1.393-.418-.477-.782-1.087-1.1-1.834-.32-.745-.482-1.57-.482-2.475 0-2.218.69-3.963 2.073-5.234C4.11 2.954 5.865 2.168 7.993 1.87V.916c0-.25.136-.463.4-.646.272-.18.6-.27.99-.27a1.7 1.7 0 0 1 .956.287c.29.19.435.4.435.626v.846c.69.024 1.364.088 2.02.19.662.1 1.353.262 2.09.49.736.227 1.328.565 1.782 1.02.446.454.673.982.673 1.587 0 .646-.2 1.318-.6 2.014-.4.695-.964 1.044-1.673 1.044-.337 0-.92-.208-1.737-.624a6.885 6.885 0 0 0-2.555-.733V12.1c.81.32 1.49.6 2.055.845.564.243 1.2.6 1.91 1.063.71.465 1.272.954 1.71 1.467.417.514.79 1.16 1.1 1.944.3.78.454 1.65.454 2.602 0 2.225-.655 4.02-1.964 5.39-1.31 1.37-3.065 2.237-5.265 2.604v1.064c0 .244-.145.47-.436.678-.292.208-.61.312-.956.312-.39 0-.72-.098-.99-.293-.265-.196-.4-.43-.4-.697v-.918c-2.175-.072-4.057-.585-5.63-1.54C.782 25.67 0 24.592 0 23.396z" fill="#A5A5A5" fill-rule="evenodd"/></svg>