<svg width="17" height="17" viewBox="0 0 17 17" xmlns="http://www.w3.org/2000/svg" xmlns:xlink="http://www.w3.org/1999/xlink"><title>Page 1</title><defs><path id="a" d="M0 .013h16.987V17H0"/></defs><g fill="none" fill-rule="evenodd"><g><mask id="b" fill="#fff"><use xlink:href="#a"/></mask><path d="M8.493 16.007a7.535 7.535 0 1 1 0-15.07 7.535 7.535 0 0 1 0 15.07m0-.29a7.212 7.212 0 1 1 0-14.423 7.212 7.212 0 0 1 0 14.424m6.577-7.682l-.334.193-.483.278.483.28.334.19a6.594 6.594 0 0 1-6.122 6.106l-.175-.303-.28-.483-.28.484-.174.304a6.594 6.594 0 0 1-6.124-6.127l.297-.17.484-.28-.484-.28-.297-.17c.22-3.28 2.84-5.903 6.12-6.128l.178.31.28.483.28-.484.177-.31a6.594 6.594 0 0 1 6.12 6.106M8.493 17a8.494 8.494 0 1 0 0-16.987 8.494 8.494 0 0 0 0 16.987" fill="#1F277F" mask="url(#b)"/></g><path d="M7.97 9.03L5.1 7.82l6.8-2.72-2.72 6.8-1.21-2.87zM7.65 15.3l1.275-1.7 1.275 1.7H7.65zM10.2 1.7L8.925 3.4 7.65 1.7h2.55zM15.3 10.2l-1.7-1.275 1.7-1.275v2.55zM1.7 7.65l1.7 1.275L1.7 10.2V7.65z" fill="#1F277F"/></g></svg>